<?xml version="1.0" standalone="no"?><!DOCTYPE svg PUBLIC "-//W3C//DTD SVG 1.1//EN" "http://www.w3.org/Graphics/SVG/1.1/DTD/svg11.dtd"><svg t="1777183488461" class="icon" viewBox="0 0 5666 1024" version="1.1" xmlns="http://www.w3.org/2000/svg" p-id="2061" xmlns:xlink="http://www.w3.org/1999/xlink" width="1106.640625" height="200"><path d="M0.395947 785.92c0.218453-130.942293 1.102507-235.373227 1.96608-232.065707 0.863573 3.310933 2.986667 5.137067 4.724053 4.06528 1.733973-1.071787 3.15392 3.54304 3.15392 10.257067 0 6.714027 3.218773 27.071147 7.154347 45.236907 38.509227 177.728853 167.970133 319.778133 339.684693 372.712106 74.20928 22.879573 50.838187 21.777067 494.547627 23.289174 221.525333 0.754347 409.552213 0.375467 417.836373-0.846507 9.980587-1.471147 18.326187-5.485227 24.746667-11.905707l9.683626-9.683626V894.327467c0-56.620373-1.358507-95.184213-3.49184-99.170987-8.3456-15.592107 3.744427-15.11424-431.70816-17.0496-459.717973-2.048-425.417387-0.208213-477.866666-25.606827-69.802667-33.798827-126.334293-101.710507-145.401174-174.670506-9.577813-36.64896-9.632427-98.218667-0.126293-134.587734 25.111893-96.058027 101.94944-170.76224 199.75168-194.21184 26.617173-6.382933 43.25376-6.638933 427.400533-6.662826 283.671893-0.017067 402.855253-1.122987 410.555734-3.805867C1302.674773 231.703893 1303.893333 225.163947 1303.893333 126.293333c0-101.270187-1.017173-106.243413-23.06048-112.718506-9.09312-2.67264-131.925333-3.382613-425.792853-2.464427-404.350293 1.262933-413.699413 1.44384-445.78816 8.45824C207.837867 63.604053 58.320213 211.36384 16.971093 407.231147c-3.642027 17.261227-6.649173 37.23264-6.67648 44.383573-0.03072 7.150933-1.47456 12.12416-3.208533 11.052373-1.737387-1.071787-3.86048 0.75776-4.724053 4.061867-0.863573 3.310933-1.747627-100.352-1.96608-230.355627L0 0h1595.733333c1272.296107 0 1595.562667 0.863573 1594.88 4.253013-0.47104 2.341547-3.157333 6.058667-5.973333 8.260267-4.49536 3.515733-5.12 48.182613-5.09952 365.24032 0.023893 399.889067-0.375467 391.7824 22.44608 459.88864 13.329067 39.7824 29.77792 66.730667 57.51808 94.22848 46.37696 45.974187 126.293333 74.769067 224.109227 80.75264 19.41504 1.18784 34.553173 3.375787 33.634986 4.860587-0.9216 1.488213 4.891307 3.293867 12.91264 4.01408 8.021333 0.7168-782.984533 1.57696-1757.78816 1.90464L0 1024z m3487.105706 232.605013c-1.133227-1.133227-4.078933-1.256107-6.54336-0.273066-2.720427 1.092267-1.911467 1.901227 2.065067 2.065066 3.597653 0.146773 5.61152-0.658773 4.478293-1.792z m-3019.021653-3.761493c-4.225707-0.812373-11.137707-0.812373-15.36 0-4.225707 0.815787-0.768 1.481387 7.68 1.481387s11.902293-0.6656 7.68-1.481387z m830.173867-8.185173c6.63552-5.82656 12.066133-12.17536 12.066133-14.11072 0-1.938773-3.324587 0.70656-7.389867 5.870933-4.06528 5.1712-12.130987 11.461973-17.92 13.984427-6.07232 2.64192-8.052053 4.642133-4.676266 4.717226 3.222187 0.07168 11.28448-4.635307 17.92-10.461866z m152.9344 5.533013c-6.065493-2.635093-14.124373-9.87136-17.90976-16.0768-3.781973-6.212267-6.884693-9.216-6.894934-6.679893-0.017067 6.918827 22.28224 27.839147 29.515094 27.682133 4.05504-0.08192 2.372267-1.8432-4.7104-4.92544z m223.4368 3.00032c-1.13664-1.133227-4.082347-1.256107-6.546774-0.273067-2.720427 1.092267-1.911467 1.901227 2.065067 2.065067 3.597653 0.146773 5.61152-0.658773 4.478293-1.792z m1119.573333 0c-1.13664-1.133227-4.082347-1.256107-6.546773-0.273067-2.720427 1.092267-1.911467 1.901227 2.065066 2.065067 3.597653 0.146773 5.61152-0.658773 4.478294-1.792z m636.654933-0.197973c-2.348373-0.948907-6.188373-0.948907-8.533333 0-2.348373 0.945493-0.426667 1.72032 4.266667 1.72032s6.61504-0.774827 4.266666-1.72032z m-2996.906666-3.413334c-2.348373-0.948907-6.188373-0.948907-8.533334 0-2.348373 0.945493-0.426667 1.72032 4.266667 1.72032s6.61504-0.774827 4.266667-1.72032z m1253.522773-1.11616c1.194667-1.931947-0.17408-2.505387-3.211947-1.34144-5.911893 2.269867-6.997333 4.717227-2.085546 4.717227 1.768107 0 4.150613-1.518933 5.297493-3.375787z m1724.53888 1.314134c-1.133227-1.133227-4.078933-1.256107-6.539947-0.273067-2.72384 1.092267-1.91488 1.901227 2.061654 2.065067 3.597653 0.146773 5.614933-0.658773 4.478293-1.792z m-2998.541653-3.611307c-2.348373-0.948907-6.188373-0.948907-8.533334 0-2.348373 0.945493-0.426667 1.72032 4.266667 1.72032s6.61504-0.774827 4.266667-1.72032z m1268.258133-5.614933c6.219093-3.392853 15.783253-12.608853 21.254827-20.48 5.471573-7.871147 33.90464-48.493227 63.1808-90.272427l53.230933-75.96032 411.6992 0.866987 411.6992 0.866986 55.7568 80.213334c62.327467 89.668267 75.513173 104.823467 95.146667 109.376853 18.7392 4.345173 191.26272 4.061867 207.110826-0.341333 7.058773-1.95584 15.27808-7.29088 18.261334-11.844267 14.093653-21.507413 29.272747 2.030933-316.214614-490.38336-176.90624-252.13952-327.202133-464.37376-333.994666-471.630507-20.957867-22.39488-22.521173-22.654293-137.680214-22.56896-118.76352 0.085333-120.907093 0.518827-145.394346 29.381974-25.146027 29.63456-648.628907 920.804693-650.407254 929.652053-0.945493 4.7104 0.863573 13.94688 4.027734 20.517547 9.301333 19.339947 16.561493 20.4288 130.331306 19.551573 89.750187-0.692907 101.922133-1.447253 111.991467-6.946133z m309.162667-423.697067c-2.030933-5.29408 232.106667-343.25504 237.806933-343.25504 5.03808 0 5.874347 1.143467 127.737173 174.08 62.839467 89.173333 114.28864 164.82304 114.336427 168.106667 0.08192 5.632-13.540693 5.973333-238.953813 5.973333-204.735147 0-239.312213-0.703147-240.92672-4.908373zM2461.013333 572.14976c0-2.587307-2.686293-6.73792-5.973333-9.222827-5.082453-3.846827-5.33504-3.805867-1.706667 0.262827 2.348373 2.63168 4.266667 6.034773 4.266667 7.563947 0 1.529173-102.912 2.372267-228.693333 1.877333-125.781333-0.494933-228.693333 0.252587-228.693334 1.65888 0 1.409707 103.68 2.56 230.4 2.56 193.42336 0 230.4-0.754347 230.4-4.703573zM2013.866667 556.373333c4.010667-5.632 6.52288-10.24 5.584213-10.24-0.938667 0-4.98688 4.608-8.997547 10.24s-6.52288 10.24-5.584213 10.24c0.938667 0 4.98688-4.608 8.997547-10.24z m430.08-10.24c-4.010667-5.632-8.05888-10.24-8.997547-10.24-0.938667 0 1.573547 4.608 5.584213 10.24 4.010667 5.632 8.05888 10.24 8.997547 10.24 0.938667 0-1.573547-4.608-5.584213-10.24z m-406.186667-23.893333c4.010667-5.632 6.52288-10.24 5.584213-10.24-0.938667 0-4.98688 4.608-8.997546 10.24s-6.52288 10.24-5.584214 10.24c0.938667 0 4.98688-4.608 8.997547-10.24z m382.293333-10.24c-4.010667-5.632-8.05888-10.24-8.997546-10.24-0.938667 0 1.573547 4.608 5.584213 10.24 4.010667 5.632 8.05888 10.24 8.997547 10.24 0.938667 0-1.573547-4.608-5.584214-10.24z m-358.4-23.893333c4.010667-5.632 6.52288-10.24 5.584214-10.24-0.938667 0-4.98688 4.608-8.997547 10.24s-6.52288 10.24-5.584213 10.24c0.938667 0 4.98688-4.608 8.997546-10.24z m341.333334 0c-4.010667-5.632-8.05888-10.24-8.997547-10.24-0.938667 0 1.573547 4.608 5.584213 10.24 4.010667 5.632 8.05888 10.24 8.997547 10.24 0.938667 0-1.573547-4.608-5.584213-10.24z m-317.44-34.133334c4.010667-5.632 6.52288-10.24 5.584213-10.24-0.938667 0-4.98688 4.608-8.997547 10.24s-6.52288 10.24-5.584213 10.24c0.938667 0 4.98688-4.608 8.997547-10.24z m293.546666 0c-4.010667-5.632-8.05888-10.24-8.997546-10.24-0.938667 0 1.573547 4.608 5.584213 10.24 4.010667 5.632 8.05888 10.24 8.997547 10.24 0.938667 0-1.573547-4.608-5.584214-10.24z m-23.893333-34.133333c-4.010667-5.632-8.05888-10.24-8.997547-10.24-0.938667 0 1.573547 4.608 5.584214 10.24 4.010667 5.632 8.05888 10.24 8.997546 10.24 0.938667 0-1.573547-4.608-5.584213-10.24z m-238.933333-10.24c4.010667-5.632 6.52288-10.24 5.584213-10.24-0.938667 0-4.98688 4.608-8.997547 10.24s-6.52288 10.24-5.584213 10.24c0.938667 0 4.98688-4.608 8.997547-10.24z m221.866666-13.653333c-4.010667-5.632-8.05888-10.24-8.997546-10.24-0.938667 0 1.573547 4.608 5.584213 10.24 4.010667 5.632 8.05888 10.24 8.997547 10.24 0.938667 0-1.573547-4.608-5.584214-10.24z m-197.973333-20.48c4.010667-5.632 6.52288-10.24 5.584213-10.24-0.938667 0-4.98688 4.608-8.997546 10.24s-6.52288 10.24-5.584214 10.24c0.938667 0 4.98688-4.608 8.997547-10.24z m174.08-13.653334c-4.010667-5.632-8.05888-10.24-8.997547-10.24-0.938667 0 1.573547 4.608 5.584214 10.24 4.010667 5.632 8.05888 10.24 8.997546 10.24 0.938667 0-1.573547-4.608-5.584213-10.24z m-150.186667-20.48c4.010667-5.632 6.52288-10.24 5.584214-10.24-0.938667 0-4.98688 4.608-8.997547 10.24s-6.52288 10.24-5.584213 10.24c0.938667 0 4.98688-4.608 8.997546-10.24z m126.293334-13.653333c-4.010667-5.632-8.05888-10.24-8.997547-10.24-0.938667 0 1.573547 4.608 5.584213 10.24 4.010667 5.632 8.05888 10.24 8.997547 10.24 0.938667 0-1.573547-4.608-5.584213-10.24z m-102.4-20.48c4.010667-5.632 6.52288-10.24 5.584213-10.24-0.938667 0-4.98688 4.608-8.997547 10.24s-6.52288 10.24-5.584213 10.24c0.938667 0 4.98688-4.608 8.997547-10.24z m85.333333-3.413333c-4.010667-5.632-8.05888-10.24-8.997547-10.24-0.938667 0 1.573547 4.608 5.584214 10.24 4.010667 5.632 8.05888 10.24 8.997546 10.24 0.938667 0-1.573547-4.608-5.584213-10.24z m-61.44-30.72c4.010667-5.632 6.52288-10.24 5.584213-10.24-0.938667 0-4.98688 4.608-8.997546 10.24s-6.52288 10.24-5.584214 10.24c0.938667 0 4.98688-4.608 8.997547-10.24z m37.546667-3.413334c-4.010667-5.632-8.05888-10.24-8.997547-10.24-0.938667 0 1.573547 4.608 5.584213 10.24 4.010667 5.632 8.05888 10.24 8.997547 10.24 0.938667 0-1.573547-4.608-5.584213-10.24z m-13.653334-18.773333c-2.338133-2.816-5.891413-5.12-7.898453-5.12-2.003627 0-0.6656 2.2528 2.97984 5.010773 8.56064 6.478507 10.233173 6.51264 4.918613 0.109227z m525.653334 744.106667c-8.290987-8.448-15.84128-15.36-16.779947-15.36-0.938667 0 5.075627 6.912 13.366613 15.36s15.84128 15.36 16.779947 15.36c0.938667 0-5.075627-6.912-13.366613-15.36z m263.263573 9.386666c4.242773-5.413547 4.123307-5.533013-1.29024-1.29024-3.28704 2.577067-5.973333 5.266773-5.973333 5.973334 0 2.809173 2.802347 1.00352 7.263573-4.683094z m370.691413 3.91168c-1.133227-1.133227-4.078933-1.256107-6.539946-0.273066-2.72384 1.092267-1.91488 1.901227 2.061653 2.065066 3.597653 0.146773 5.61152-0.658773 4.478293-1.792z m-3000.32-3.413333c-1.133227-1.133227-4.078933-1.256107-6.539946-0.273067-2.72384 1.092267-1.91488 1.901227 2.061653 2.065067 3.597653 0.146773 5.61152-0.658773 4.478293-1.792zM1703.253333 998.4c4.410027-4.693333 7.24992-8.533333 6.311254-8.533333-0.938667 0-5.31456 3.84-9.724587 8.533333-4.410027 4.693333-7.24992 8.533333-6.311253 8.533333 0.938667 0 5.31456-3.84 9.724586-8.533333z m-1321.8816 3.058347c-1.13664-1.133227-4.082347-1.256107-6.54336-0.273067-2.72384 1.092267-1.91488 1.901227 2.061654 2.065067 3.597653 0.146773 5.61152-0.658773 4.478293-1.792z m2990.08 0c-1.13664-1.133227-4.082347-1.256107-6.54336-0.273067-2.72384 1.092267-1.91488 1.901227 2.061654 2.065067 3.597653 0.146773 5.61152-0.658773 4.478293-1.792zM3345.066667 993.28c-2.816-1.819307-6.656-3.310933-8.533334-3.310933s-1.109333 1.491627 1.706667 3.310933c2.816 1.819307 6.656 3.310933 8.533333 3.310933s1.109333-1.491627-1.706666-3.310933z m-13.93664-4.7104c-3.47136-3.160747-37.26336-19.121493-37.26336-17.599147 0 2.07872 31.19104 18.517333 35.556693 18.7392 1.72032 0.085333 2.48832-0.426667 1.706667-1.140053z m-2018.07872-9.58464c-1.092267-2.720427-1.897813-1.911467-2.061654 2.065067-0.146773 3.597653 0.658773 5.61152 1.792 4.478293 1.133227-1.133227 1.256107-4.078933 0.273067-6.539947z m409.101653-7.038293c5.26336-7.97696 7.386453-12.704427 4.72064-10.502827-5.126827 4.232533-18.193067 25.009493-15.735467 25.009493 0.79872 0 5.75488-6.529707 11.014827-14.506666zM307.2 976.213333c-2.816-1.819307-6.656-3.310933-8.533333-3.310933s-1.109333 1.491627 1.706666 3.310933c2.816 1.819307 6.656 3.310933 8.533334 3.310934s1.109333-1.491627-1.706667-3.310934z m2426.88-15.36c-5.812907-8.448-11.33568-15.36-12.274347-15.36-0.938667 0 3.048107 6.912 8.861014 15.36s11.33568 15.36 12.274346 15.36c0.938667 0-3.048107-6.912-8.861013-15.36z m300.373333 2.358614c0-1.518933-2.327893-5.741227-5.174613-9.386667-4.799147-6.144-4.881067-5.942613-1.160533 2.761387 4.020907 9.39008 6.335147 11.813547 6.335146 6.62528z m245.76-1.942187c0-0.70656-2.686293-3.396267-5.973333-5.973333-5.413547-4.242773-5.533013-4.123307-1.29024 1.29024 4.461227 5.686613 7.263573 7.492267 7.263573 4.683093z m-3013.973333-3.741013c0-0.89088-4.608-4.00384-10.24-6.915414-12.834133-6.638933-13.612373-3.754667-0.853333 3.167574 10.728107 5.819733 11.093333 5.942613 11.093333 3.74784z m1172.442453-10.752c3.2256-4.922027 4.17792-7.908693 2.116267-6.632107-3.938987 2.433707-11.88864 15.588693-9.4208 15.588693 0.791893 0 4.07552-4.027733 7.304533-8.953173zM1740.8 945.493333c4.010667-5.632 6.52288-10.24 5.584213-10.24-0.938667 0-4.98688 4.608-8.997546 10.24s-6.52288 10.24-5.584214 10.24c0.938667 0 4.98688-4.608 8.997547-10.24z m1512.106667-8.533333c-8.290987-8.448-15.84128-15.36-16.779947-15.36-0.938667 0 5.075627 6.912 13.366613 15.36s15.84128 15.36 16.779947 15.36c0.938667 0-5.075627-6.912-13.366613-15.36z m-3010.56 7.31136c0-0.67584-8.448-6.833493-18.773334-13.687467-10.325333-6.8608-18.773333-11.7248-18.773333-10.816853 0 1.49504 34.51904 25.726293 36.64896 25.726293 0.49152 0 0.897707-0.549547 0.897707-1.221973zM3010.56 925.013333c-4.010667-5.632-8.05888-10.24-8.997547-10.24-0.938667 0 1.573547 4.608 5.584214 10.24 4.010667 5.632 8.05888 10.24 8.997546 10.24 0.938667 0-1.573547-4.608-5.584213-10.24z m-303.786667-3.413333c-4.010667-5.632-8.05888-10.24-8.997546-10.24-0.938667 0 1.573547 4.608 5.584213 10.24 4.010667 5.632 8.05888 10.24 8.997547 10.24 0.938667 0-1.573547-4.608-5.584214-10.24z m-1245.866666-6.826667c4.010667-5.632 6.52288-10.24 5.584213-10.24-0.938667 0-4.98688 4.608-8.997547 10.24s-6.52288 10.24-5.584213 10.24c0.938667 0 4.98688-4.608 8.997547-10.24z m303.786666-3.413333c4.010667-5.632 6.52288-10.24 5.584214-10.24-0.938667 0-4.98688 4.608-8.997547 10.24s-6.52288 10.24-5.584213 10.24c0.938667 0 4.98688-4.608 8.997546-10.24z m-1563.306666 5.655893c0-0.648533-8.062293-7.676587-17.92-15.622826l-17.92-14.44864 16.974506 15.619413c16.37376 15.069867 18.865493 16.981333 18.865494 14.452053zM3228.474027 907.946667c-7.645867-10.338987-12.158293-13.851307-7.676587-5.973334 3.177813 5.584213 12.332373 16.213333 13.96736 16.213334 0.703147 0-2.126507-4.608-6.290773-10.24zM2993.493333 901.12c-4.010667-5.632-8.05888-10.24-8.997546-10.24-0.938667 0 1.573547 4.608 5.584213 10.24 4.010667 5.632 8.05888 10.24 8.997547 10.24 0.938667 0-1.573547-4.608-5.584214-10.24z m-1211.733333-13.653333c4.010667-5.632 6.52288-10.24 5.584213-10.24-0.938667 0-4.98688 4.608-8.997546 10.24s-6.52288 10.24-5.584214 10.24c0.938667 0 4.98688-4.608 8.997547-10.24z m1433.6 0c-2.010453-3.754667-4.420267-6.826667-5.358933-6.826667-0.938667 0-0.064853 3.072 1.9456 6.826667s4.420267 6.826667 5.358933 6.826666c0.938667 0 0.064853-3.072-1.9456-6.826666z m-1730.56-6.826667c4.010667-5.632 6.52288-10.24 5.584213-10.24-0.938667 0-4.98688 4.608-8.997546 10.24s-6.52288 10.24-5.584214 10.24c0.938667 0 4.98688-4.608 8.997547-10.24z m-1320.96 5.843627c0-0.539307-8.062293-8.6016-17.92-17.92L128 851.626667l16.93696 17.92c15.742293 16.65024 18.90304 19.48672 18.90304 16.93696zM2676.053333 877.226667c-4.010667-5.632-8.05888-10.24-8.997546-10.24-0.938667 0 1.573547 4.608 5.584213 10.24 4.010667 5.632 8.05888 10.24 8.997547 10.24 0.938667 0-1.573547-4.608-5.584214-10.24z m293.546667-10.24c-4.010667-5.632-8.05888-10.24-8.997547-10.24-0.938667 0 1.573547 4.608 5.584214 10.24 4.010667 5.632 8.05888 10.24 8.997546 10.24 0.938667 0-1.573547-4.608-5.584213-10.24z m232.523093-5.717334c-4.02432-6.918827-4.993707-4.703573-1.69984 3.877547 1.16736 3.05152 2.84672 4.829867 3.723947 3.949227 0.88064-0.877227-0.03072-4.4032-2.024107-7.826774zM1501.866667 856.746667c4.010667-5.632 6.52288-10.24 5.584213-10.24-0.938667 0-4.98688 4.608-8.997547 10.24s-6.52288 10.24-5.584213 10.24c0.938667 0 4.98688-4.608 8.997547-10.24z m303.786666-3.413334c4.010667-5.632 6.52288-10.24 5.584214-10.24-0.938667 0-4.98688 4.608-8.997547 10.24s-6.52288 10.24-5.584213 10.24c0.938667 0 4.98688-4.608 8.997546-10.24z m843.093334-15.36l-10.56768-15.36-406.87616 0.83968-406.87616 0.83968 406.596266 0.88064 406.596267 0.88064 9.024853 13.63968c4.962987 7.502507 9.847467 13.63968 10.847574 13.63968 1.00352 0-2.935467-6.912-8.74496-15.36z m546.54976 6.229334c-4.02432-6.918827-4.993707-4.703573-1.69984 3.877546 1.16736 3.05152 2.84672 4.829867 3.723946 3.949227 0.88064-0.877227-0.03072-4.4032-2.024106-7.826773zM129.706667 848.851627c0-0.587093-4.990293-5.5808-11.093334-11.093334L107.52 827.733333l10.02496 11.093334c9.345707 10.3424 12.161707 12.663467 12.161707 10.02496zM2945.706667 832.853333c-4.010667-5.632-8.05888-10.24-8.997547-10.24-0.938667 0 1.573547 4.608 5.584213 10.24 4.010667 5.632 8.05888 10.24 8.997547 10.24 0.938667 0-1.573547-4.608-5.584213-10.24z m-1123.31776-4.881066c-0.897707-0.90112-3.66592 1.75104-6.15424 5.888-4.317867 7.191893-4.242773 7.263573 1.634986 1.634986 3.382613-3.242667 5.41696-6.628693 4.519254-7.5264z m1367.995733 0.82944c-1.092267-2.72384-1.897813-1.91488-2.061653 2.061653-0.146773 3.597653 0.658773 5.61152 1.792 4.478293 1.133227-1.133227 1.256107-4.078933 0.273066-6.54336zM1525.76 822.613333c4.010667-5.632 6.52288-10.24 5.584213-10.24-0.938667 0-4.98688 4.608-8.997546 10.24s-6.52288 10.24-5.584214 10.24c0.938667 0 4.98688-4.608 8.997547-10.24z m-1425.298773-8.533333c-5.010773-6.570667-9.885013-11.946667-10.830507-11.946667-1.686187 0 2.471253 6.065493 12.291413 17.92 8.966827 10.820267 7.840427 6.219093-1.460906-5.973333z m1212.5184-12.8c-0.945493-2.348373-1.72032-0.426667-1.72032 4.266667s0.774827 6.61504 1.72032 4.266666c0.948907-2.348373 0.948907-6.188373 0-8.533333zM2921.813333 798.72c-4.010667-5.632-8.05888-10.24-8.997546-10.24-0.938667 0 1.573547 4.608 5.584213 10.24 4.010667 5.632 8.05888 10.24 8.997547 10.24 0.938667 0-1.573547-4.608-5.584214-10.24z m261.74464 2.77504c-1.092267-2.72384-1.897813-1.91488-2.061653 2.061653-0.146773 3.597653 0.658773 5.61152 1.792 4.478294 1.133227-1.133227 1.256107-4.078933 0.273067-6.54336zM1549.653333 788.48c4.010667-5.632 6.52288-10.24 5.584214-10.24-0.938667 0-4.98688 4.608-8.997547 10.24s-6.52288 10.24-5.584213 10.24c0.938667 0 4.98688-4.608 8.997546-10.24z m1630.419627-4.266667c-0.945493-2.348373-1.72032-0.426667-1.72032 4.266667s0.774827 6.61504 1.72032 4.266667c0.948907-2.348373 0.948907-6.188373 0-8.533334z m-1880.63744-4.375893c-5.266773-4.631893-11.25376-8.424107-13.305173-8.424107-2.048 0 1.491627 3.70688 7.871146 8.239787 15.080107 10.717867 17.496747 10.796373 5.434027 0.18432zM71.68 771.413333c-2.010453-3.754667-4.420267-6.826667-5.358933-6.826666-0.938667 0-0.064853 3.072 1.9456 6.826666s4.420267 6.826667 5.358933 6.826667c0.938667 0 0.064853-3.072-1.9456-6.826667z m2826.24-6.826666c-4.010667-5.632-8.05888-10.24-8.997547-10.24-0.938667 0 1.573547 4.608 5.584214 10.24 4.010667 5.632 8.05888 10.24 8.997546 10.24 0.938667 0-1.573547-4.608-5.584213-10.24z m278.84544-2.495147c-0.866987-3.321173-1.631573-1.430187-1.69984 4.201813-0.068267 5.632 0.638293 8.349013 1.570133 6.038187 0.938667-2.310827 0.996693-6.918827 0.129707-10.24z m-2095.854933 6.761813c-110.4384-0.498347-290.1504-0.498347-399.36 0-109.2096 0.50176-18.85184 0.907947 200.79616 0.907947s309.00224-0.4096 198.56384-0.907947z m-612.430507-3.11296c-2.348373-0.948907-6.188373-0.948907-8.533333 0-2.348373 0.945493-0.426667 1.72032 4.266666 1.72032s6.61504-0.774827 4.266667-1.72032z m-18.8416-3.21536c-1.13664-1.133227-4.082347-1.256107-6.54336-0.273066-2.72384 1.092267-1.91488 1.901227 2.061653 2.065066 3.597653 0.146773 5.61152-0.658773 4.478294-1.792zM1573.546667 754.346667c4.010667-5.632 6.52288-10.24 5.584213-10.24-0.938667 0-4.98688 4.608-8.997547 10.24s-6.52288 10.24-5.584213 10.24c0.938667 0 4.98688-4.608 8.997547-10.24z m-1519.643307-15.250774c-5.986987-12.141227-11.451733-21.51424-12.137813-20.824746-1.52576 1.52576 19.111253 42.902187 21.4016 42.902186 0.89088 0-3.2768-9.9328-9.263787-22.07744z m382.078293 20.015787c-1.133227-1.133227-4.078933-1.256107-6.539946-0.273067-2.72384 1.092267-1.91488 1.901227 2.061653 2.065067 3.597653 0.146773 5.61152-0.658773 4.478293-1.792zM419.84 754.346667c-2.816-1.819307-6.656-3.310933-8.533333-3.310934s-1.109333 1.491627 1.706666 3.310934c2.816 1.819307 6.656 3.310933 8.533334 3.310933s1.109333-1.491627-1.706667-3.310933z m-13.93664-4.70016c-3.474773-3.14368-30.436693-15.745707-30.436693-14.22336 0 2.092373 24.4224 15.151787 28.730026 15.36 1.72032 0.08192 2.48832-0.43008 1.706667-1.13664z m2767.49312-23.45984c-0.815787-4.225707-1.481387-0.768-1.481387 7.68s0.6656 11.902293 1.481387 7.68c0.812373-4.225707 0.812373-11.137707 0-15.36zM2880.853333 739.403093c0-0.70656-2.686293-3.396267-5.973333-5.973333-5.413547-4.242773-5.533013-4.123307-1.29024 1.29024 4.461227 5.686613 7.263573 7.492267 7.263573 4.683093zM1597.44 720.213333c4.010667-5.632 6.52288-10.24 5.584213-10.24-0.938667 0-4.98688 4.608-8.997546 10.24s-6.52288 10.24-5.584214 10.24c0.938667 0 4.98688-4.608 8.997547-10.24z m-1245.866667-1.112746c0-0.610987-4.225707-4.83328-9.386666-9.386667L332.8 701.44l8.27392 9.386667c7.734613 8.772267 10.499413 10.953387 10.499413 8.27392zM2856.96 706.56c-4.010667-5.632-8.05888-10.24-8.997547-10.24-0.938667 0 1.573547 4.608 5.584214 10.24 4.010667 5.632 8.05888 10.24 8.997546 10.24 0.938667 0-1.573547-4.608-5.584213-10.24z m-2822.41024-9.130667c-4.02432-6.918827-4.993707-4.703573-1.69984 3.877547 1.16736 3.05152 2.84672 4.829867 3.723947 3.949227 0.88064-0.877227-0.034133-4.4032-2.024107-7.826774zM1614.506667 696.32c4.010667-5.632 6.52288-10.24 5.584213-10.24-0.938667 0-4.98688 4.608-8.997547 10.24s-6.52288 10.24-5.584213 10.24c0.938667 0 4.98688-4.608 8.997547-10.24z m-1283.413334 5.758293c0-0.587093-4.990293-5.5808-11.093333-11.093333L308.906667 680.96l10.02496 11.093333c9.345707 10.3424 12.161707 12.663467 12.161706 10.02496zM3170.133333 190.293333c-0.505173-92.45696-0.9216-16.810667-0.9216 168.106667s0.416427 260.56704 0.9216 168.106667c0.505173-92.45696 0.505173-243.75296 0-336.213334zM2833.066667 672.426667c-4.010667-5.632-8.05888-10.24-8.997547-10.24-0.938667 0 1.573547 4.608 5.584213 10.24 4.010667 5.632 8.05888 10.24 8.997547 10.24 0.938667 0-1.573547-4.608-5.584213-10.24z m-2533.102934-6.826667c-6.034773-7.509333-11.6736-13.653333-12.526933-13.653333-1.744213 0 4.143787 8.123733 14.22336 19.626666 11.205973 12.78976 10.018133 8.605013-1.696427-5.973333zM1638.4 662.186667c4.010667-5.632 6.52288-10.24 5.584213-10.24-0.938667 0-4.98688 4.608-8.997546 10.24s-6.52288 10.24-5.584214 10.24c0.938667 0 4.98688-4.608 8.997547-10.24zM19.397973 654.718293c-1.092267-2.720427-1.897813-1.911467-2.061653 2.065067-0.146773 3.597653 0.658773 5.61152 1.792 4.478293 1.133227-1.133227 1.256107-4.078933 0.273067-6.54336zM2809.173333 638.293333c-4.010667-5.632-8.05888-10.24-8.997546-10.24-0.938667 0 1.573547 4.608 5.584213 10.24 4.010667 5.632 8.05888 10.24 8.997547 10.24 0.938667 0-1.573547-4.608-5.584214-10.24z m-1146.88-10.24c4.010667-5.632 6.52288-10.24 5.584214-10.24-0.938667 0-4.98688 4.608-8.997547 10.24s-6.52288 10.24-5.584213 10.24c0.938667 0 4.98688-4.608 8.997546-10.24z m-1388.049066-1.85344c-1.112747-2.89792-2.75456-4.53632-3.648854-3.642026-0.894293 0.894293-0.6144 3.26656 0.62464 5.266773 3.365547 5.44768 5.331627 4.389547 3.024214-1.624747z m-265.086294-12.438186c-1.092267-2.72384-1.897813-1.91488-2.061653 2.061653-0.146773 3.597653 0.658773 5.61152 1.792 4.478293 1.133227-1.133227 1.256107-4.078933 0.273067-6.54336zM2785.28 604.16c-4.010667-5.632-8.05888-10.24-8.997547-10.24-0.938667 0 1.573547 4.608 5.584214 10.24 4.010667 5.632 8.05888 10.24 8.997546 10.24 0.938667 0-1.573547-4.608-5.584213-10.24z m-2522.036907-2.304c-4.02432-6.918827-4.993707-4.703573-1.69984 3.877547 1.16736 3.05152 2.84672 4.829867 3.723947 3.949226 0.88064-0.877227-0.034133-4.4032-2.024107-7.826773zM1686.186667 593.92c4.010667-5.632 6.52288-10.24 5.584213-10.24-0.938667 0-4.98688 4.608-8.997547 10.24s-6.52288 10.24-5.584213 10.24c0.938667 0 4.98688-4.608 8.997547-10.24z m-1431.268694-17.708373c-1.092267-2.720427-1.897813-1.911467-2.061653 2.065066-0.146773 3.597653 0.658773 5.61152 1.792 4.478294 1.133227-1.133227 1.256107-4.078933 0.273067-6.54336z m2513.29536 2.7648c0-0.70656-2.686293-3.396267-5.973333-5.973334-5.413547-4.242773-5.533013-4.123307-1.29024 1.29024 4.461227 5.686613 7.263573 7.492267 7.263573 4.683094zM251.43296 558.933333c-0.945493-2.348373-1.72032-0.426667-1.72032 4.266667s0.774827 6.61504 1.72032 4.266667c0.948907-2.348373 0.948907-6.188373 0-8.533334zM1710.08 559.786667c4.010667-5.632 6.52288-10.24 5.584213-10.24-0.938667 0-4.98688 4.608-8.997546 10.24s-6.52288 10.24-5.584214 10.24c0.938667 0 4.98688-4.608 8.997547-10.24z m1034.24-13.653334c-4.010667-5.632-8.05888-10.24-8.997547-10.24-0.938667 0 1.573547 4.608 5.584214 10.24 4.010667 5.632 8.05888 10.24 8.997546 10.24 0.938667 0-1.573547-4.608-5.584213-10.24z m-2496.2048-12.8c-0.86016-3.28704-1.563307-0.597333-1.563307 5.973334s0.703147 9.25696 1.559894 5.973333c0.86016-3.28704 0.86016-8.66304 0-11.946667zM1727.146667 535.893333c4.010667-5.632 6.52288-10.24 5.584213-10.24-0.938667 0-4.98688 4.608-8.997547 10.24s-6.52288 10.24-5.584213 10.24c0.938667 0 4.98688-4.608 8.997547-10.24z m993.28-23.893333c-4.010667-5.632-8.05888-10.24-8.997547-10.24-0.938667 0 1.573547 4.608 5.584213 10.24 4.010667 5.632 8.05888 10.24 8.997547 10.24 0.938667 0-1.573547-4.608-5.584213-10.24z m-969.386667-10.24c4.010667-5.632 6.52288-10.24 5.584213-10.24-0.938667 0-4.98688 4.608-8.997546 10.24s-6.52288 10.24-5.584214 10.24c0.938667 0 4.98688-4.608 8.997547-10.24z m-1502.9248-26.453333c-0.86016-3.28704-1.563307-0.597333-1.563307 5.973333s0.703147 9.25696 1.559894 5.973333c0.86016-3.28704 0.86016-8.66304 0-11.946666zM2696.533333 477.866667c-4.010667-5.632-8.05888-10.24-8.997546-10.24-0.938667 0 1.573547 4.608 5.584213 10.24 4.010667 5.632 8.05888 10.24 8.997547 10.24 0.938667 0-1.573547-4.608-5.584214-10.24z m-921.6-10.24c4.010667-5.632 6.52288-10.24 5.584214-10.24-0.938667 0-4.98688 4.608-8.997547 10.24s-6.52288 10.24-5.584213 10.24c0.938667 0 4.98688-4.608 8.997546-10.24z m-1523.428693-10.881707c-1.092267-2.720427-1.897813-1.911467-2.061653 2.065067-0.146773 3.597653 0.658773 5.61152 1.792 4.478293 1.133227-1.133227 1.256107-4.078933 0.273066-6.54336zM2672.64 443.733333c-4.010667-5.632-8.05888-10.24-8.997547-10.24-0.938667 0 1.573547 4.608 5.584214 10.24 4.010667 5.632 8.05888 10.24 8.997546 10.24 0.938667 0-1.573547-4.608-5.584213-10.24z m-2417.722027-4.05504c-1.092267-2.720427-1.897813-1.911467-2.061653 2.065067-0.146773 3.597653 0.658773 5.61152 1.792 4.478293 1.133227-1.133227 1.256107-4.078933 0.273067-6.54336zM1798.826667 433.493333c4.010667-5.632 6.52288-10.24 5.584213-10.24-0.938667 0-4.98688 4.608-8.997547 10.24s-6.52288 10.24-5.584213 10.24c0.938667 0 4.98688-4.608 8.997547-10.24z m-1532.689067-22.186666c0-1.877333-1.491627-1.109333-3.310933 1.706666-1.819307 2.816-3.310933 6.656-3.310934 8.533334s1.491627 1.109333 3.310934-1.706667c1.819307-2.816 3.310933-6.656 3.310933-8.533333zM2648.746667 409.6c-4.010667-5.632-8.05888-10.24-8.997547-10.24-0.938667 0 1.573547 4.608 5.584213 10.24 4.010667 5.632 8.05888 10.24 8.997547 10.24 0.938667 0-1.573547-4.608-5.584213-10.24zM9.157973 402.131627c-1.092267-2.720427-1.897813-1.911467-2.061653 2.065066-0.146773 3.597653 0.658773 5.61152 1.792 4.478294 1.133227-1.133227 1.256107-4.078933 0.273067-6.54336zM1822.72 399.36c4.010667-5.632 6.52288-10.24 5.584213-10.24-0.938667 0-4.98688 4.608-8.997546 10.24s-6.52288 10.24-5.584214 10.24c0.938667 0 4.98688-4.608 8.997547-10.24z m-1548.34944-5.297493c1.163947-3.037867 0.590507-4.406613-1.34144-3.208534-1.856853 1.143467-3.375787 3.525973-3.375787 5.29408 0 4.908373 2.44736 3.826347 4.717227-2.082133zM2631.68 385.706667c-4.010667-5.632-8.05888-10.24-8.997547-10.24-0.938667 0 1.573547 4.608 5.584214 10.24 4.010667 5.632 8.05888 10.24 8.997546 10.24 0.938667 0-1.573547-4.608-5.584213-10.24z m-2619.108693-0.641707c-1.092267-2.720427-1.897813-1.911467-2.061654 2.065067-0.146773 3.597653 0.658773 5.61152 1.792 4.478293 1.133227-1.133227 1.256107-4.078933 0.273067-6.54336zM295.2192 360.106667c5.717333-7.942827 7.0656-11.250347 3.2256-7.908694-3.631787 3.160747-9.509547 10.840747-13.062827 17.066667-7.621973 13.3632-3.84 9.84064 9.837227-9.157973z m1548.417707 9.386666c4.242773-5.413547 4.123307-5.533013-1.29024-1.29024-3.28704 2.577067-5.973333 5.266773-5.973334 5.973334 0 2.809173 2.802347 1.00352 7.263574-4.683094zM19.397973 361.171627c-1.092267-2.720427-1.897813-1.911467-2.061653 2.065066-0.146773 3.597653 0.658773 5.61152 1.792 4.478294 1.133227-1.133227 1.256107-4.078933 0.273067-6.54336zM2607.786667 351.573333c-4.010667-5.632-8.05888-10.24-8.997547-10.24-0.938667 0 1.573547 4.608 5.584213 10.24 4.010667 5.632 8.05888 10.24 8.997547 10.24 0.938667 0-1.573547-4.608-5.584213-10.24z m-744.106667-10.24c4.010667-5.632 6.52288-10.24 5.584213-10.24-0.938667 0-4.98688 4.608-8.997546 10.24s-6.52288 10.24-5.584214 10.24c0.938667 0 4.98688-4.608 8.997547-10.24zM324.266667 325.973333c10.195627-10.325333 17.773227-18.773333 16.83456-18.773333-0.938667 0-10.052267 8.448-20.247894 18.773333-10.195627 10.325333-17.773227 18.773333-16.83456 18.773334 0.938667 0 10.052267-8.448 20.247894-18.773334zM2583.893333 317.44c-4.010667-5.632-8.05888-10.24-8.997546-10.24-0.938667 0 1.573547 4.608 5.584213 10.24 4.010667 5.632 8.05888 10.24 8.997547 10.24 0.938667 0-1.573547-4.608-5.584214-10.24z m-696.32-10.24c4.010667-5.632 6.52288-10.24 5.584214-10.24-0.938667 0-4.98688 4.608-8.997547 10.24s-6.52288 10.24-5.584213 10.24c0.938667 0 4.98688-4.608 8.997546-10.24zM54.254933 280.746667c7.748267-15.486293 13.318827-28.16 12.38016-28.16C64.733867 252.586667 37.546667 305.687893 37.546667 309.398187c0 4.096 2.276693 0.191147 16.708266-28.65152zM372.053333 287.778133c0-2.4576-20.773547 10.60864-25.009493 15.735467-2.2016 2.665813 2.525867 0.54272 10.502827-4.72064 7.97696-5.259947 14.506667-10.216107 14.506666-11.011413zM2560 283.306667c-4.010667-5.632-8.05888-10.24-8.997547-10.24-0.938667 0 1.573547 4.608 5.584214 10.24 4.010667 5.632 8.05888 10.24 8.997546 10.24 0.938667 0-1.573547-4.608-5.584213-10.24z m-2155.264-12.827307c-1.542827-1.54624-29.269333 12.24704-29.269333 14.557867 0 0.877227 6.877867-1.747627 15.284906-5.833387 8.40704-4.082347 14.701227-8.011093 13.984427-8.72448zM1911.466667 273.066667c4.010667-5.632 6.52288-10.24 5.584213-10.24-0.938667 0-4.98688 4.608-8.997547 10.24s-6.52288 10.24-5.584213 10.24c0.938667 0 4.98688-4.608 8.997547-10.24z m-1491.626667-6.826667c2.816-1.819307 3.584-3.310933 1.706667-3.310933s-5.717333 1.491627-8.533334 3.310933c-2.816 1.819307-3.584 3.310933-1.706666 3.310933s5.717333-1.491627 8.533333-3.310933z m16.145067-5.474987c-1.13664-1.133227-4.082347-1.256107-6.546774-0.273066-2.720427 1.092267-1.911467 1.901227 2.065067 2.065066 3.597653 0.146773 5.61152-0.658773 4.478293-1.792z m13.653333-3.413333c-1.13664-1.133227-4.082347-1.256107-6.54336-0.273067-2.72384 1.092267-1.91488 1.901227 2.061653 2.065067 3.597653 0.146773 5.61152-0.658773 4.478294-1.792zM2536.106667 249.173333c-4.010667-5.632-8.05888-10.24-8.997547-10.24-0.938667 0 1.573547 4.608 5.584213 10.24 4.010667 5.632 8.05888 10.24 8.997547 10.24 0.938667 0-1.573547-4.608-5.584213-10.24z m-2071.04 4.56704c-2.348373-0.948907-6.188373-0.948907-8.533334 0-2.348373 0.945493-0.426667 1.72032 4.266667 1.72032s6.61504-0.774827 4.266667-1.72032z m612.693333-3.713706c-110.29504-0.498347-290.77504-0.498347-401.066667 0-110.29504 0.50176-20.053333 0.907947 200.533334 0.907946s310.828373-0.4096 200.533333-0.907946zM1935.36 238.933333c4.010667-5.632 6.52288-10.24 5.584213-10.24-0.938667 0-4.98688 4.608-8.997546 10.24s-6.52288 10.24-5.584214 10.24c0.938667 0 4.98688-4.608 8.997547-10.24z m-631.466667-1.9456c0-0.938667-3.072-0.064853-6.826666 1.9456s-6.826667 4.420267-6.826667 5.358934c0 0.938667 3.072 0.064853 6.826667-1.9456s6.826667-4.420267 6.826666-5.358934zM87.166293 224.426667c5.26336-7.97696 7.386453-12.704427 4.72064-10.502827C86.760107 218.156373 73.693867 238.933333 76.151467 238.933333c0.79872 0 5.75488-6.529707 11.014826-14.506666zM2519.04 225.28c-4.010667-5.632-8.05888-10.24-8.997547-10.24-0.938667 0 1.573547 4.608 5.584214 10.24 4.010667 5.632 8.05888 10.24 8.997546 10.24 0.938667 0-1.573547-4.608-5.584213-10.24z m-1205.200213-11.74528c-0.23552-5.638827-0.836267-5.225813-3.048107 2.092373-1.512107 5.0176-3.79904 11.1616-5.07904 13.653334s0.09216 1.549653 3.048107-2.092374c2.955947-3.64544 5.239467-9.78944 5.07904-13.653333zM1959.253333 204.8c4.010667-5.632 6.52288-10.24 5.584214-10.24-0.938667 0-4.98688 4.608-8.997547 10.24s-6.52288 10.24-5.584213 10.24c0.938667 0 4.98688-4.608 8.997546-10.24z m-1856.416426-2.56c4.242773-5.413547 4.123307-5.533013-1.29024-1.29024-3.283627 2.577067-5.973333 5.266773-5.973334 5.973333 0 2.809173 2.802347 1.00352 7.263574-4.683093zM2495.146667 191.146667c-4.010667-5.632-8.05888-10.24-8.997547-10.24-0.938667 0 1.573547 4.608 5.584213 10.24 4.010667 5.632 8.05888 10.24 8.997547 10.24 0.938667 0-1.573547-4.608-5.584213-10.24zM116.053333 186.026667c4.410027-4.693333 7.24992-8.533333 6.311254-8.533334-0.938667 0-5.31456 3.84-9.724587 8.533334-4.410027 4.693333-7.24992 8.533333-6.311253 8.533333 0.938667 0 5.31456-3.84 9.724586-8.533333zM1976.32 180.906667c4.010667-5.632 6.52288-10.24 5.584213-10.24-0.938667 0-4.98688 4.608-8.997546 10.24s-6.52288 10.24-5.584214 10.24c0.938667 0 4.98688-4.608 8.997547-10.24zM195.536213 109.479253C206.267733 101.376 215.04 94.071467 215.04 93.24544c0-4.17792-35.119787 24.4736-61.42976 50.11456-25.18016 24.541867-25.746773 25.299627-3.672747 4.928853 14.353067-13.243733 34.870613-30.713173 45.602134-38.8096zM2471.253333 157.013333c-4.010667-5.632-8.05888-10.24-8.997546-10.24-0.938667 0 1.573547 4.608 5.584213 10.24 4.010667 5.632 8.05888 10.24 8.997547 10.24 0.938667 0-1.573547-4.608-5.584214-10.24z m-471.04-10.24c4.010667-5.632 6.52288-10.24 5.584214-10.24-0.938667 0-4.98688 4.608-8.997547 10.24s-6.52288 10.24-5.584213 10.24c0.938667 0 4.98688-4.608 8.997546-10.24z m447.146667-23.893333c-4.010667-5.632-8.05888-10.24-8.997547-10.24-0.938667 0 1.573547 4.608 5.584214 10.24 4.010667 5.632 8.05888 10.24 8.997546 10.24 0.938667 0-1.573547-4.608-5.584213-10.24z m-423.253333-10.24c4.010667-5.632 6.52288-10.24 5.584213-10.24-0.938667 0-4.98688 4.608-8.997547 10.24s-6.52288 10.24-5.584213 10.24c0.938667 0 4.98688-4.608 8.997547-10.24z m399.36-23.893333c-4.010667-5.632-8.05888-10.24-8.997547-10.24-0.938667 0 1.573547 4.608 5.584213 10.24 4.010667 5.632 8.05888 10.24 8.997547 10.24 0.938667 0-1.573547-4.608-5.584213-10.24z m-375.466667-10.24c4.010667-5.632 6.52288-10.24 5.584213-10.24-0.938667 0-4.98688 4.608-8.997546 10.24s-6.52288 10.24-5.584214 10.24c0.938667 0 4.98688-4.608 8.997547-10.24zM252.586667 69.7344c0-0.938667-3.072-0.064853-6.826667 1.9456s-6.826667 4.420267-6.826667 5.358933c0 0.938667 3.072 0.064853 6.826667-1.9456s6.826667-4.420267 6.826667-5.358933zM2406.4 64.853333c-4.010667-5.632-8.05888-10.24-8.997547-10.24-0.938667 0 1.573547 4.608 5.584214 10.24 4.010667 5.632 8.05888 10.24 8.997546 10.24 0.938667 0-1.573547-4.608-5.584213-10.24zM292.096 48.612693C290.553173 47.066453 262.826667 60.859733 262.826667 63.17056c0 0.877227 6.877867-1.747627 15.284906-5.833387 8.40704-4.082347 14.701227-8.011093 13.984427-8.72448z m1776.820907 0.027307c4.242773-5.413547 4.123307-5.533013-1.29024-1.29024-3.28704 2.577067-5.973333 5.266773-5.973334 5.973333 0 2.809173 2.802347 1.00352 7.263574-4.683093zM1314.133333 38.198613c0-3.396267-2.187947-9.15456-4.864-12.8-4.307627-5.86752-4.406613-5.16096-0.8704 6.17472 4.44416 14.257493 5.7344 15.745707 5.7344 6.62528zM2107.733333 10.786133c3.754667-2.061653 4.79232-3.795627 2.307414-3.853653-2.48832-0.054613-11.76576 7.195307-20.616534 16.110933-12.291413 12.383573-12.837547 13.294933-2.307413 3.85024 7.584427-6.795947 16.861867-14.045867 20.616533-16.110933zM2375.68 25.6c-8.290987-8.448-15.84128-15.36-16.779947-15.36-0.938667 0 5.075627 6.912 13.366614 15.36s15.84128 15.36 16.779946 15.36c0.938667 0-5.075627-6.912-13.366613-15.36zM367.7184 21.83168c-1.13664-1.133227-4.082347-1.256107-6.546773-0.273067-2.720427 1.092267-1.911467 1.901227 2.065066 2.065067 3.597653 0.146773 5.61152-0.658773 4.478294-1.792z m23.893333-6.826667c-1.13664-1.133227-4.082347-1.256107-6.546773-0.273066-2.720427 1.092267-1.911467 1.901227 2.065067 2.065066 3.597653 0.146773 5.61152-0.658773 4.478293-1.792z m912.2816 0.477867c0-0.873813-3.454293-3.263147-7.68-5.311147-7.3728-3.57376-7.417173-3.51232-1.05472 1.5872C1302.121813 17.33632 1303.893333 18.090667 1303.893333 15.479467z m-895.214933-3.8912c-1.13664-1.133227-4.082347-1.256107-6.54336-0.273067-2.72384 1.092267-1.91488 1.901227 2.061653 2.065067 3.597653 0.146773 5.61152-0.658773 4.478294-1.792z m18.8416-3.611307c-2.348373-0.948907-6.188373-0.948907-8.533333 0-2.348373 0.945493-0.426667 1.72032 4.266666 1.72032s6.61504-0.774827 4.266667-1.72032z m650.24-3.713706c-108.414293-0.498347-285.822293-0.498347-394.24 0-108.414293 0.50176-19.712 0.91136 197.12 0.91136s305.537707-0.4096 197.12-0.91136z m1206.82496 0.006826c-28.511573-0.570027-76.127573-0.570027-105.813333 0-29.682347 0.566613-6.355627 1.03424 51.841706 1.03424s82.486613-0.464213 53.971627-1.03424zM4160.853333 1022.798507c0-0.658773 4.608-6.02112 10.24-11.912534l10.24-10.717866V902.8608c0-92.760747-0.31744-97.631573-6.826666-104.137387-6.720853-6.720853-11.380053-6.826667-297.813334-6.826666-171.782827-0.003413-306.049707-1.4336-327.755093-3.49184-46.851413-4.44416-69.382827-12.741973-87.272107-32.150187-27.29984-29.617493-25.797973-8.219307-27.787946-395.567787-1.54624-300.45184-2.423467-344.6784-6.89152-348.173653-2.816-2.2016-5.502293-5.915307-5.973334-8.256853C3420.330667 0.863573 3648.314027 0 4543.146667 0h1122.986666l-0.0512 142.506667c-0.034133 93.26592-1.194667 140.73856-3.362133 137.386666-1.819307-2.816-3.44064-3.584-3.601067-1.706666-0.160427 1.877333-3.106133-9.919147-6.539946-26.2144-12.629333-59.87328-38.939307-107.062613-85.306027-152.9856-47.530667-47.080107-106.16832-76.110507-171.895467-85.0944-17.923413-2.454187-187.306667-3.652267-515.413333-3.64544-458.43456 0.003413-489.45152 0.375467-500.657493 5.973333-8.137387 4.061867-13.243733 9.775787-16.022187 17.913173-5.434027 15.93344-6.25664 930.338133-0.853333 949.794134 2.071893 7.4752 7.345493 15.3088 12.629333 18.773333 8.516267 5.577387 39.9872 5.9392 516.096 5.915307l507.030187-0.023894 33.047893-9.106773c79.89248-22.016 143.36-69.64224 184.94464-138.775893 17.803947-29.597013 34.553173-74.478933 38.280533-102.577494 1.262933-9.5232 3.505493-16.561493 4.983467-15.64672 1.4848 0.914773 3.47136-0.26624 4.42368-2.624853 0.948907-2.3552 1.850027 60.607147 1.9968 139.926187L5666.133333 1024h-752.64c-413.952 0-752.64-0.539307-752.64-1.201493z m29.969067-119.497387l-0.754347-99.46112-1.809066 101.02784c-1.047893 58.606933-3.239253 103.10656-5.218987 105.97376-1.877333 2.720427-0.723627 2.013867 2.56-1.56672 5.440853-5.932373 5.905067-15.37024 5.2224-105.97376z m1204.804267 111.520427c-3.28704-0.86016-8.66304-0.86016-11.946667 0-3.28704 0.856747-0.597333 1.559893 5.973333 1.559893s9.25696-0.703147 5.973334-1.559893z m-1019.733334-2.37568c0-0.723627-4.225707-3.884373-9.386666-7.031467l-9.386667-5.71392 8.055467 7.031467c7.867733 6.8608 10.717867 8.379733 10.717866 5.71392z m1041.92-0.945494c-2.348373-0.948907-6.188373-0.948907-8.533333 0-2.348373 0.945493-0.426667 1.72032 4.266667 1.72032s6.61504-0.774827 4.266666-1.72032z m81.179307-26.811733c9.325227-4.724053 16.954027-9.35936 16.954027-10.298027 0-1.529173-33.78176 14.421333-37.26336 17.59232-4.027733 3.669333 5.24288 0.341333 20.309333-7.294293z m48.110933-31.515307c4.242773-5.413547 4.123307-5.533013-1.29024-1.29024-3.28704 2.577067-5.973333 5.266773-5.973333 5.973334 0 2.809173 2.802347 1.00352 7.263573-4.683094z m30.283094-26.453333c12.09344-12.202667 21.220693-22.186667 20.282026-22.186667-0.938667 0-11.60192 9.984-23.69536 22.186667s-21.220693 22.186667-20.282026 22.186667c0.938667 0 11.60192-9.984 23.69536-22.186667z m27.743573-31.573333c4.242773-5.413547 4.123307-5.533013-1.29024-1.29024-3.28704 2.577067-5.973333 5.266773-5.973333 5.973333 0 2.809173 2.802347 1.00352 7.263573-4.683093zM5628.586667 860.16c2.010453-3.754667 2.884267-6.826667 1.9456-6.826667s-3.34848 3.072-5.358934 6.826667c-2.010453 3.754667-2.884267 6.826667-1.9456 6.826667s3.34848-3.072 5.358934-6.826667z m16.964266-35.84c0-1.877333-1.491627-1.109333-3.310933 1.706667-1.819307 2.816-3.310933 6.656-3.310933 8.533333s1.491627 1.109333 3.310933-1.706667c1.819307-2.816 3.310933-6.656 3.310933-8.533333z m-1467.153066-35.95264c-4.437333-3.693227-10.581333-6.710613-13.653334-6.7072-3.078827 0-0.221867 2.884267 6.3488 6.406827 15.622827 8.372907 17.066667 8.430933 7.304534 0.300373z m1479.826773-3.9424c-1.092267-2.720427-1.897813-1.911467-2.061653 2.065067-0.146773 3.597653 0.658773 5.61152 1.792 4.478293 1.13664-1.133227 1.256107-4.078933 0.273066-6.54336z m-2105.797973-5.123413c-3.28704-0.86016-8.66304-0.86016-11.946667 0-3.28704 0.856747-0.597333 1.559893 5.973333 1.559893s9.25696-0.703147 5.973334-1.559893z m-27.374934-3.1232c-1.13664-1.133227-4.082347-1.256107-6.546773-0.273067-2.720427 1.092267-1.911467 1.901227 2.065067 2.065067 3.597653 0.146773 5.614933-0.658773 4.478293-1.792z m-34.9184-10.420907c-5.632-2.95936-15.598933-10.192213-22.152533-16.0768-11.492693-10.315093-11.61216-10.3424-3.413333-0.853333 8.983893 10.40384 26.658133 22.644053 32.392533 22.43584 1.877333-0.068267-1.194667-2.546347-6.826667-5.505707z m-40.33536-53.009067c-1.092267-2.72384-1.897813-1.91488-2.061653 2.061654-0.146773 3.597653 0.658773 5.61152 1.792 4.478293 1.133227-1.133227 1.256107-4.078933 0.273067-6.54336z m-3.3792-18.92352c-0.866987-3.321173-1.631573-1.430187-1.69984 4.201814-0.068267 5.632 0.638293 8.349013 1.570134 6.038186 0.938667-2.310827 0.996693-6.918827 0.129706-10.24zM3444.053333 345.398613c0-290.730667-0.590507-327.76192-5.307733-333.653333-5.126827-6.4-5.188267-6.372693-1.706667 0.82944 2.44736 5.072213 3.601067 111.807147 3.601067 333.653333 0 179.408213 0.768 326.198613 1.706667 326.198614s1.706667-147.162453 1.706666-327.028054z m2214.171307-113.933653c-1.092267-2.720427-1.897813-1.911467-2.061653 2.065067-0.146773 3.597653 0.658773 5.61152 1.792 4.478293 1.133227-1.133227 1.256107-4.078933 0.273066-6.539947z m-12.151467-35.795627c-4.027733-6.918827-4.99712-4.703573-1.706666 3.877547 1.174187 3.05152 2.850133 4.829867 3.72736 3.949227 0.88064-0.877227-0.034133-4.4032-2.024107-7.826774z m-23.268693-45.74208c-3.38944-5.77536-10.410667-15.373653-15.598933-21.333333-5.352107-6.144-3.222187-1.59744 4.9152 10.499413 15.1552 22.521173 21.077333 28.525227 10.683733 10.83392zM5597.866667 115.101013c0-0.52224-10.369707-10.888533-23.04-23.04l-23.04-22.08768 22.08768 23.04c20.514133 21.4016 23.99232 24.599893 23.99232 22.08768z m-47.786667-44.711253c0-0.70656-2.686293-3.396267-5.973333-5.973333-5.413547-4.242773-5.533013-4.123307-1.29024 1.29024 4.461227 5.686613 7.263573 7.492267 7.263573 4.683093z m-15.34976-12.346027c-1.153707-1.867093-5.46816-5.041493-9.588053-7.05536-6.4512-3.15392-6.30784-2.69312 1.04448 3.321174 9.557333 7.816533 11.625813 8.721067 8.543573 3.734186z m-18.783573-11.912533c0-2.071893-39.796053-22.299307-43.424427-22.070613-1.460907 0.088747 7.328427 5.393067 19.531093 11.779413 24.692053 12.926293 23.893333 12.58496 23.893334 10.287787z m-1159.543467-15.414613c0.98304-3.75808 0.392533-5.973333-1.307307-4.918614-1.703253 1.051307-3.095893 4.123307-3.095893 6.83008 0 7.0656 2.321067 6.058667 4.4032-1.911466z m17.353387-23.698774c-0.805547-0.836267-4.881067 2.071893-9.05216 6.464854l-7.584427 7.980373 9.05216-6.464853c4.980053-3.556693 8.393387-7.14752 7.584427-7.980374z m1062.7584 4.573867c-1.133227-1.133227-4.078933-1.256107-6.54336-0.273067-2.720427 1.092267-1.911467 1.901227 2.065066 2.065067 3.597653 0.146773 5.614933-0.658773 4.478294-1.792z m-13.653334-3.413333c-1.133227-1.133227-4.078933-1.256107-6.54336-0.273067-2.720427 1.092267-1.911467 1.901227 2.065067 2.065067 3.597653 0.146773 5.614933-0.658773 4.478293-1.792zM5122.56 4.266667c-134.69696-0.494933-355.11296-0.494933-489.813333 0-134.69696 0.494933-24.490667 0.897707 244.906666 0.897706s379.60704-0.402773 244.906667-0.897706z m-530.097493 769.61792c-0.9216-2.39616-1.256107-36.570453-0.74752-75.946667l0.925013-71.591253h392.533333c375.22432 0 393.045333 0.27648 404.094294 6.304426 30.6176 16.6912 45.315413 51.479893 37.430613 88.582827-4.7104 22.15936-27.917653 47.353173-48.991573 53.189973-21.189973 5.864107-782.987947 5.34528-785.24416-0.539306z m391.857493-5.031254l-383.146667-0.884053V634.914133l378.88-0.89088 378.88-0.89088-379.733333 0.023894-379.733333 0.023893-0.93184 64.750933c-0.512 35.607893-0.177493 66.7136 0.74752 69.12 1.35168 3.52256 75.956907 4.205227 384.93184 3.529387l383.25248-0.83968z m394.171733-2.914986c-1.13664-1.133227-4.082347-1.256107-6.546773-0.273067-2.720427 1.092267-1.911467 1.901227 2.065067 2.065067 3.597653 0.146773 5.614933-0.658773 4.478293-1.792z m38.365867-36.205227c-0.058027-2.423467-1.795413-1.327787-3.863893 2.42688-2.06848 3.754667-7.7824 11.502933-12.6976 17.216853-4.97664 5.789013-3.26656 4.7104 3.863893-2.42688 7.041707-7.051947 12.752213-14.7968 12.6976-17.216853z m2.433707-13.571413c-1.092267-2.72384-1.897813-1.91488-2.061654 2.061653-0.146773 3.597653 0.658773 5.61152 1.792 4.478293 1.133227-1.133227 1.256107-4.078933 0.273067-6.54336z m-0.068267-34.348374c-0.948907-2.348373-1.723733-0.426667-1.723733 4.266667s0.774827 6.61504 1.72032 4.266667 0.945493-6.188373 0-8.533334z m-2.26304-9.0112c0-1.665707-3.09248-6.656-6.874453-11.093333l-6.877867-8.055467 6.024533 11.072854c6.314667 11.608747 7.727787 13.08672 7.727787 8.07936z m-38.468267-36.570453c-1.13664-1.133227-4.082347-1.256107-6.546773-0.273067-2.720427 1.092267-1.911467 1.901227 2.065067 2.065067 3.597653 0.146773 5.614933-0.658773 4.478293-1.792z m285.39904 65.20832c0-15.018667 0.6144-20.739413 1.3312-12.711253 0.723627 8.02816 0.713387 20.31616-0.034133 27.306666-0.730453 6.990507-1.32096 0.423253-1.31072-14.595413z m-1.170773-39.45472c0-1.98656-1.536-2.6624-3.413333-1.50528-1.887573 1.16736-3.413333-1.314133-3.413334-5.553493 0-25.43616-25.132373-91.11552-47.612586-124.422827-5.727573-8.48896-10.41408-17.7664-10.41408-20.619947 0-2.853547 4.4032-11.605333 9.7792-19.456 21.80096-31.798613 42.622293-82.981547 46.90944-115.309226 1.211733-9.12384 3.426987-15.83104 4.92544-14.906027 1.498453 0.928427 3.4304-1.024 4.29056-4.33152 0.863573-3.30752 1.747627 65.024 1.96608 151.852373 0.218453 86.828373-0.372053 157.866667-1.31072 157.866667s-1.706667-1.62816-1.706667-3.61472z m-7.908693-58.466987c-1.092267-2.720427-1.897813-1.911467-2.061654 2.065067-0.146773 3.597653 0.658773 5.61152 1.792 4.478293 1.133227-1.133227 1.256107-4.078933 0.273067-6.54336z m-5.3248-15.315626c-4.027733-6.918827-4.99712-4.703573-1.706667 3.877546 1.174187 3.05152 2.850133 4.829867 3.72736 3.949227 0.88064-0.877227-0.034133-4.4032-2.024107-7.826773z m-12.19584-28.07808c-4.846933-9.570987-9.54368-17.404587-10.431147-17.404587-0.887467 0 2.5088 8.403627 7.550293 18.67776 5.034667 10.274133 9.728 18.10432 10.431147 17.408 0.699733-0.699733-2.696533-9.106773-7.550293-18.681173z m-14.1824-25.084587c-1.358507-2.348373-5.430613-8.543573-9.05216-13.7728-3.621547-5.23264-5.69344-11.83744-4.601174-14.68416 1.1264-2.942293 0.529067-4.276907-1.385813-3.09248-5.21216 3.218773-4.123307 7.5264 5.61152 22.234453 8.226133 12.427947 15.233707 19.3536 9.427627 9.314987z m14.175573-74.55744c3.003733-5.80608 4.85376-11.1616 4.113067-11.902293-0.740693-0.740693-3.90144 4.007253-7.02464 10.55744-7.017813 14.718293-4.58752 15.844693 2.911573 1.344853zM1.194667 508.586667c0-15.957333 0.590507-22.48704 1.307306-14.506667 0.7168 7.97696 0.7168 21.03296 0 29.013333-0.7168 7.97696-1.307307 1.450667-1.307306-14.506666z m4593.5616-117.271894c-2.79552-3.365547-3.6864-25.750187-3.037867-76.014933l0.925013-71.246507 390.301014-0.866986c378.29632-0.843093 390.7584-0.669013 405.097813 5.676373 35.956053 15.906133 51.602773 67.50208 32.180907 106.123947-7.048533 14.015147-17.414827 24.04352-33.979734 32.88064-11.431253 6.096213-28.678827 6.413653-399.735466 7.297706-328.768853 0.781653-388.396373 0.19456-391.75168-3.85024z m390.49216-139.588266l383.931733-0.887467-384.856747 0.02048-384.853333 0.02048-0.11264 68.266667-0.11264 68.266666 1.041067-67.39968 1.037653-67.396266z m388.194986 131.720533c-2.348373-0.948907-6.188373-0.948907-8.533333 0-2.348373 0.945493-0.426667 1.72032 4.266667 1.72032s6.61504-0.774827 4.266666-1.72032z m30.242134-17.0496c2.976427-3.46112 6.546773-8.594773 7.936-11.410773 1.385813-2.816-0.47104-1.447253-4.123307 3.037866-3.652267 4.488533-10.315093 11.117227-14.803627 14.73536-6.1952 4.99712-6.505813 5.778773-1.293653 3.252907 3.775147-1.829547 9.301333-6.157653 12.281173-9.61536z m15.609173-35.9424c-1.092267-2.72384-1.897813-1.91488-2.061653 2.061653-0.146773 3.597653 0.658773 5.61152 1.792 4.478294 1.133227-1.133227 1.256107-4.078933 0.273066-6.539947z m0-30.72c-1.092267-2.72384-1.897813-1.91488-2.061653 2.061653-0.146773 3.597653 0.658773 5.61152 1.792 4.478294 1.133227-1.133227 1.256107-4.078933 0.273066-6.539947zM5416.96 290.781867c0-1.518933-2.327893-5.741227-5.174613-9.386667-4.799147-6.144-4.881067-5.942613-1.160534 2.761387 4.020907 9.39008 6.335147 11.813547 6.335147 6.62528z m-13.806933-23.026347c-2.423467-2.9184-7.601493-6.894933-11.513174-8.833707-4.25984-2.116267-3.003733-0.04096 3.13344 5.18144 11.748693 10.001067 14.718293 11.29472 8.379734 3.652267zM5663.911253 317.44c0-15.957333 0.590507-22.48704 1.307307-14.506667 0.7168 7.97696 0.7168 21.03296 0 29.013334-0.7168 7.97696-1.307307 1.450667-1.307307-14.506667z" p-id="2062"></path></svg>