<?xml version="1.0" encoding="UTF-8" standalone="no"?>
<!-- Creator: CorelDRAW 2020 (64-Bit) -->

<svg
   xml:space="preserve"
   width="206.44701mm"
   height="40.050999mm"
   version="1.1"
   style="clip-rule:evenodd;fill-rule:evenodd;image-rendering:optimizeQuality;shape-rendering:geometricPrecision;text-rendering:geometricPrecision"
   viewBox="0 0 20644.701 4005.1"
   id="svg13"
   sodipodi:docname="cornex-楚能chuneng.svg"
   inkscape:version="1.4.3 (0d15f75, 2025-12-25)"
   xmlns:inkscape="http://www.inkscape.org/namespaces/inkscape"
   xmlns:sodipodi="http://sodipodi.sourceforge.net/DTD/sodipodi-0.dtd"
   xmlns="http://www.w3.org/2000/svg"
   xmlns:svg="http://www.w3.org/2000/svg"><sodipodi:namedview
   id="namedview13"
   pagecolor="#ffffff"
   bordercolor="#000000"
   borderopacity="0.25"
   inkscape:showpageshadow="2"
   inkscape:pageopacity="0.0"
   inkscape:pagecheckerboard="0"
   inkscape:deskcolor="#d1d1d1"
   inkscape:document-units="mm"
   inkscape:zoom="0.57269489"
   inkscape:cx="300.33444"
   inkscape:cy="99.529437"
   inkscape:window-width="1440"
   inkscape:window-height="830"
   inkscape:window-x="-6"
   inkscape:window-y="-6"
   inkscape:window-maximized="1"
   inkscape:current-layer="_1918546341168" />
 <defs
   id="defs1">
  <style
   type="text/css"
   id="style1">
   <![CDATA[
    .fil0 {fill:#0028AA;fill-rule:nonzero}
    .fil1 {fill:#04CE19;fill-rule:nonzero}
   ]]>
  </style>
 </defs>
 <g
   id="图层_x0020_1"
   inkscape:label="图层 1"
   inkscape:groupmode="layer"
   transform="translate(2.47,-6.13)">
  <metadata
   id="CorelCorpID_0Corel-Layer" />
  <g
   id="_1918546341168">
   
   
   
   
   
   
   
   <polygon
   class="fil0"
   points="16637.34,555.83 17186.89,6.13 18557.92,1377.21 18008.24,1926.91 "
   id="polygon6" />
   <polygon
   class="fil0"
   points="18721.6,2640.15 19271.15,2090.47 20642.17,3461.53 20092.5,4011.23 "
   id="polygon7" />
   <polygon
   class="fil1"
   points="17186.95,4011.11 16637.28,3461.54 18008.3,2090.45 18557.97,2640.15 "
   id="polygon8" />
   <polygon
   class="fil1"
   points="19271.21,1926.8 18721.53,1377.22 20092.56,6.14 20642.23,555.84 "
   id="polygon9" />
   <path
   class="fil0"
   d="m 5033.58,3105.38 c -587.76,0 -1064,-476.65 -1064,-1064.46 0,-587.77 476.24,-1064.54 1064,-1064.54 587.75,0 1064.4,476.77 1064.4,1064.54 0,587.81 -476.65,1064.46 -1064.4,1064.46 z m 0,-2926.33 c -1028.25,0 -1861.7,833.61 -1861.7,1861.87 0,1028.3 833.45,1870.36 1861.7,1870.36 1028.21,0 1861.69,-842.06 1861.69,-1870.36 0,-1028.26 -833.48,-1861.87 -1861.69,-1861.87 z"
   id="path9" />
   <path
   class="fil0"
   d="m 1859.13,3105.38 c -587.75,0 -1064.4,-476.65 -1064.4,-1064.33 0,-587.81 476.65,-1064.45 1064.4,-1064.45 377.53,0 709.49,197.01 897.93,493.78 L 2998.6,568.92 C 2683.73,324.52 2288.48,179.27 1859.13,179.27 c -1028.53,0 -1861.6,833.3 -1861.6,1861.78 0,1027.86 833.07,1870.23 1861.6,1870.23 429.35,0 824.6,-147.02 1138.95,-392.41 l -242.63,-904.4 c -189.18,295.02 -520.03,490.91 -896.32,490.91 z"
   id="path10" />
   <path
   class="fil0"
   d="M 12703.43,1702.47 V 3911.01 H 11889.5 V 1741.17 c 0,-196.61 -79.53,-374.88 -208.8,-504.23 -129.46,-129.39 -306.73,-208.84 -504.23,-208.84 -394.22,0 -713.07,319.85 -713.07,713.07 V 3911.01 H 9655.5 V 236.54 h 807.9 V 357.8 c 213.83,-114.12 457.38,-178.3 716.01,-178.3 841.52,0 1524.02,681.5 1524.02,1522.97 z"
   id="path11" />
   <path
   class="fil0"
   d="m 9268.45,269.13 v 985.09 c -65.2,-69.27 -143.62,-126.31 -232.17,-165.05 -87.69,-38.7 -185.48,-61.1 -288.27,-61.1 -393.29,0 -713.07,319.85 -713.07,713.06 V 3910.98 H 7228.19 V 236.53 h 806.75 v 121.23 c 212.8,-114.12 457.29,-178.27 716.02,-178.27 181.33,0 355.52,31.57 517.49,89.64 z"
   id="path12" />
   <path
   class="fil0"
   d="m 13946.41,1608.71 c 165.13,-363.67 531.74,-616.62 957.43,-616.62 425.9,0 793.04,252.95 958.55,616.62 z m 2794.36,767.2 c 18.87,-107.29 29.05,-218.03 29.05,-330.68 0,-1030.82 -835.1,-1865.98 -1865.98,-1865.98 -1030.27,0 -1865.85,835.16 -1865.85,1865.98 0,1030.31 835.58,1866.06 1865.85,1866.06 720.2,0 1344.52,-407.37 1655.72,-1004.64 l -738.51,-344.85 c -180.01,320.07 -523.3,536.15 -917.21,536.15 -465.52,0 -860.76,-302.54 -999.11,-722.04 z"
   id="path13" />
  </g>
 </g>
</svg>
