<?xml version="1.0" standalone="no"?><!DOCTYPE svg PUBLIC "-//W3C//DTD SVG 1.1//EN" "http://www.w3.org/Graphics/SVG/1.1/DTD/svg11.dtd"><svg t="1777183481458" class="icon" viewBox="0 0 1024 1024" version="1.1" xmlns="http://www.w3.org/2000/svg" p-id="1754" xmlns:xlink="http://www.w3.org/1999/xlink" width="200" height="200"><path d="M507.19115 63.48c-7.156 0-7.402 7.395 0 8.32C684.91115 94.624 823.70115 251.99 823.70115 385.48c0 36.704-24.241 68.35-66.25 68.35-115.416 0-291.284-78.71-464.13-78.71-141.386 0-213.43 63.84-213.43 150.14 0 234.101 197.702 420.46 427.3 420.46 6.847 0 6.662-7.65 0-8.39-176.67-20.788-316.58-180.192-316.58-313.62 0-36.704 24.311-68.34 66.32-68.34 112.578 0 290.357 78.65 464.19 78.65 141.386 0 213.31-63.854 213.31-150.03 0.062-234.348-197.642-420.51-427.24-420.51z m-82.72 43.42c-81.488 0-154.838 26.834-200.98 60.33-4.812 3.454-1.788 9.07 3.27 6.48 107.828-55.395 300.728-33.494 343.97 41.27 5.737 9.993 1.603 16.526-27.76 9.74-214.053-49.226-368.39 2.9-447.72 133.43-2.036 3.208 1.17 4.51 4.07 1.24 104.62-116.28 345.139-76.737 527.67-24.55 106.718 30.535 114.49-21.224 89.63-74.83-23.564-50.707-108.2-138.734-260.69-151.75a361.869 361.869 0 0 0-31.46-1.36z m493.8 541c-0.802 0-2.04 0.555-3.15 1.85-104.682 116.28-345.19 76.735-527.66 24.61-106.718-30.535-114.56 21.154-89.7 74.76 23.503 50.707 108.2 138.74 260.69 151.88 93.826 8.02 181.85-21.288 233.79-59.04 4.812-3.454 1.922-9.124-3.26-6.41-107.767 55.395-302.148 33.496-345.39-41.33-5.737-9.932-1.666-16.474 27.82-9.75 213.991 49.288 368.33-2.903 447.66-133.37 1.172-1.974 0.495-3.2-0.8-3.2z" p-id="1755"></path></svg>