<?xml version="1.0" encoding="UTF-8" standalone="no"?>
<svg
   version="1.0"
   width="381.43091"
   height="420.00528"
   viewBox="0 0 381.43091 420.00528"
   preserveAspectRatio="xMidYMid"
   id="svg3"
   sodipodi:docname="GBT-巨湾技研juwanjiyan.svg"
   inkscape:version="1.4.3 (0d15f75, 2025-12-25)"
   xmlns:inkscape="http://www.inkscape.org/namespaces/inkscape"
   xmlns:sodipodi="http://sodipodi.sourceforge.net/DTD/sodipodi-0.dtd"
   xmlns="http://www.w3.org/2000/svg"
   xmlns:svg="http://www.w3.org/2000/svg"
   xmlns:rdf="http://www.w3.org/1999/02/22-rdf-syntax-ns#"
   xmlns:dc="http://purl.org/dc/elements/1.1/">
  <defs
     id="defs3" />
  <sodipodi:namedview
     id="namedview3"
     pagecolor="#ffffff"
     bordercolor="#000000"
     borderopacity="0.25"
     inkscape:showpageshadow="2"
     inkscape:pageopacity="0.0"
     inkscape:pagecheckerboard="0"
     inkscape:deskcolor="#d1d1d1"
     inkscape:zoom="0.7325"
     inkscape:cx="191.12628"
     inkscape:cy="210.23891"
     inkscape:window-width="1440"
     inkscape:window-height="830"
     inkscape:window-x="-6"
     inkscape:window-y="-6"
     inkscape:window-maximized="1"
     inkscape:current-layer="svg3" />
  <metadata
     id="metadata1">
    <rdf:RDF>
      <rdf:Description
         dc:format="image/svg+xml"
         dc:Label="1"
         dc:ContentProducer="001191330110MACRLGPT8B00000"
         dc:ProduceID="420211338"
         dc:ReservedCode1="Nl6xDUVC8ojR3Cha5bnnvgzO9MrOWFuEWNVPmrACRhs="
         dc:ContentPropagator="001191330110MACRLGPT8B00000"
         dc:PropagateID="420211338"
         dc:ReservedCode2="Nl6xDUVC8ojR3Cha5bnnvgzO9MrOWFuEWNVPmrACRhs=" />
    </rdf:RDF>
  </metadata>
  <g
     transform="matrix(0.056351,0,0,-0.056351,-25.986824,449.02604)"
     fill="#000000"
     stroke="none"
     id="g3">
    <path
       d="m 3701,7954 c -64,-13 -217,-85 -476,-221 -71,-38 -204,-108 -295,-155 -91,-47 -419,-219 -730,-381 C 1466,6814 971,6557 735,6435 631,6381 540,6333 533,6328 c -13,-10 22,-28 1197,-620 388,-196 1032,-520 1432,-722 l 727,-367 123,62 c 111,56 746,383 1183,610 403,208 1454,751 1727,891 163,84 296,153 295,154 -1,0 -236,119 -522,264 -286,145 -574,291 -640,325 -210,107 -409,156 -636,156 -129,1 -176,-4 -297,-32 -45,-10 -88,-19 -95,-19 -10,0 -12,21 -9,88 2,49 -1,113 -7,142 -24,112 -103,229 -194,291 -92,61 -755,387 -822,404 -73,18 -208,18 -294,-1 z m 126,-747 c 161,-81 306,-159 324,-174 45,-38 71,-101 63,-152 -9,-57 -54,-123 -108,-160 -42,-29 -557,-297 -1061,-553 l -201,-101 -452,228 c -249,125 -452,232 -452,236 0,13 12,19 560,302 283,146 628,325 765,396 138,72 255,129 260,128 6,-1 142,-68 302,-150 z m 1313,-717 c 40,-7 133,-48 345,-156 160,-80 296,-152 304,-159 11,-10 -32,-36 -235,-140 -137,-70 -301,-155 -364,-187 -63,-33 -304,-156 -535,-274 l -421,-213 -189,95 c -386,195 -716,366 -713,369 16,16 1083,554 1170,589 197,81 430,109 638,76 z"
       id="path1" />
    <path
       d="m 6774,5820 c -143,-73 -369,-190 -504,-260 -135,-70 -328,-170 -430,-222 -825,-424 -1272,-654 -1485,-762 -278,-141 -316,-170 -361,-270 l -28,-61 2,-462 c 1,-297 6,-472 13,-490 24,-66 99,-111 162,-99 18,3 140,63 272,132 132,69 346,180 475,246 129,67 244,127 255,135 11,7 25,13 32,13 9,0 13,-227 16,-1007 7,-1705 9,-1833 29,-1870 28,-51 64,-73 120,-73 44,0 89,21 445,201 276,141 413,216 453,250 108,90 187,242 209,403 7,52 11,516 11,1411 v 1333 l 113,58 c 265,136 522,275 545,296 41,39 79,101 96,158 14,46 16,118 16,494 0,408 -2,444 -19,482 -24,53 -71,86 -131,92 -45,4 -62,-3 -306,-128 z"
       id="path2" />
    <path
       d="m 590,5884 c -46,-20 -77,-50 -103,-99 l -22,-40 -3,-1683 c -2,-1823 -5,-1743 51,-1881 53,-131 170,-259 313,-342 43,-26 653,-334 1354,-685 l 1275,-638 67,-1 c 59,0 70,3 105,31 21,16 47,48 58,70 20,38 20,62 23,1094 3,1175 7,1101 -66,1182 -42,46 -71,62 -945,502 -725,366 -698,355 -755,302 -51,-46 -52,-51 -52,-412 0,-322 1,-340 21,-381 11,-23 33,-51 47,-62 15,-10 200,-105 412,-211 212,-106 396,-202 410,-212 58,-46 60,-53 60,-304 0,-219 -1,-233 -21,-258 -11,-14 -30,-26 -41,-26 -12,0 -298,138 -635,307 -447,224 -627,320 -663,351 -64,56 -125,149 -150,229 -19,63 -20,92 -20,983 0,876 1,918 18,933 10,10 27,17 37,17 10,0 212,-98 449,-219 1541,-781 1664,-842 1713,-843 82,-2 151,52 173,133 7,26 10,137 8,307 l -3,267 -29,52 c -15,28 -42,65 -60,81 -34,34 -56,45 -1718,880 -1079,543 -1180,592 -1225,592 -26,-1 -64,-8 -83,-16 z"
       id="path3" />
  </g>
</svg>
