<?xml version="1.0" standalone="no"?><!DOCTYPE svg PUBLIC "-//W3C//DTD SVG 1.1//EN" "http://www.w3.org/Graphics/SVG/1.1/DTD/svg11.dtd"><svg t="1777188430688" class="icon" viewBox="0 0 1024 1024" version="1.1" xmlns="http://www.w3.org/2000/svg" p-id="1370" xmlns:xlink="http://www.w3.org/1999/xlink" width="200" height="200"><path d="M599.04 102.4C573.60384 85.20704 457.1136-4.28032 433.47968 18.71872 377.56928 73.14432 576.18432 102.21568 599.04 102.4M332.8 880.64c-48.15872-73.1136-102.0928-136.37632-118.1184-225.28C184.2176 486.43072 314.7264 327.75168 476.16 293.57056c117.44256-24.86272 182.49728 62.11584 286.72 81.08032 50.03264 9.1136 86.34368-27.70944 79.38048-77.69088C820.224 138.6496 554.11712 112.60928 435.2 140.0832 85.53472 220.90752 31.66208 706.58048 332.8 880.64m122.88-542.72c-41.70752 20.39808-89.62048 41.0112-115.07712 82.2784-9.5232 15.44192-19.29216 56.87296 13.1584 51.65056C394.4448 465.29536 433.07008 375.59296 465.92 348.16l-10.24-10.24m276.48 307.2c-108.27776 186.80832-341.66784 179.2512-460.8 10.24-20.0704 68.05504 48.85504 149.98528 102.4 184.6272 122.18368 79.07328 297.1648 60.83584 409.6-26.2144 47.58528-36.84352 129.97632-119.92064 91.83232-187.77088-43.86816-78.0288-158.68928 2.2528-224.95232-2.3552-41.27744-2.87744-81.2032-30.17728-122.42944-26.3168-29.2864 2.73408-52.49024 26.60352-42.93632 57.07776C518.3488 761.1392 678.87104 680.2432 732.16 645.12M250.88 860.16c35.6352 71.53664 105.54368 166.02112 194.56 153.6L250.88 860.16m112.64 0c38.48192 71.85408 135.18848 117.02272 215.04 121.91744 22.56896 1.3824 129.31072-6.98368 100.59776-54.33344-18.0224-29.71648-84.61312 0.43008-110.83776 1.40288-74.89536 2.7648-141.64992-34.3552-204.8-68.98688z" p-id="1371"></path></svg>