<?xml version="1.0" standalone="no"?><!DOCTYPE svg PUBLIC "-//W3C//DTD SVG 1.1//EN" "http://www.w3.org/Graphics/SVG/1.1/DTD/svg11.dtd"><svg t="1777179434699" class="icon" viewBox="0 0 1024 1024" version="1.1" xmlns="http://www.w3.org/2000/svg" p-id="1789" xmlns:xlink="http://www.w3.org/1999/xlink" width="200" height="200"><path d="M256 170.666667a42.666667 42.666667 0 1 0 0 85.333333 42.666667 42.666667 0 0 0 0-85.333333z m128 42.666666a128.042667 128.042667 0 0 1-85.333333 120.746667V384a85.333333 85.333333 0 0 0 85.333333 85.333333 170.24 170.24 0 0 1 128 57.770667A170.24 170.24 0 0 1 640 469.333333a85.333333 85.333333 0 0 0 85.333333-85.333333V334.08a128.042667 128.042667 0 1 1 85.333334 0V384a170.666667 170.666667 0 0 1-170.666667 170.666667 85.333333 85.333333 0 0 0-85.333333 85.333333v49.92a128.042667 128.042667 0 1 1-85.333334 0V640a85.333333 85.333333 0 0 0-85.333333-85.333333 170.666667 170.666667 0 0 1-170.666667-170.666667V334.08A128.042667 128.042667 0 1 1 384 213.333333z m128 554.666667a42.666667 42.666667 0 1 0 0 85.333333 42.666667 42.666667 0 0 0 0-85.333333z m256-512a42.666667 42.666667 0 1 0 0-85.333333 42.666667 42.666667 0 0 0 0 85.333333z" p-id="1790"></path></svg>