<?xml version="1.0" standalone="no"?><!DOCTYPE svg PUBLIC "-//W3C//DTD SVG 1.1//EN" "http://www.w3.org/Graphics/SVG/1.1/DTD/svg11.dtd"><svg t="1777183497545" class="icon" viewBox="0 0 1024 1024" version="1.1" xmlns="http://www.w3.org/2000/svg" p-id="2369" xmlns:xlink="http://www.w3.org/1999/xlink" width="200" height="200"><path d="M389.485714 766.171429l-95.451428-95.634286c1.462857-21.942857 5.668571-47.542857 10.605714-77.165714l0.731429-4.022858C325.302857 468.662857 425.691429 329.142857 560.64 329.142857c36.388571 0 79.36 13.165714 79.36 50.285714 0 18.834286-14.08 41.142857-41.142857 41.142858-33.097143 0-50.285714-18.285714-50.285714-18.285715s12.068571 54.857143 68.571428 54.857143C660.114286 457.142857 694.857143 426.788571 694.857143 372.114286c0-68.205714-73.142857-97.828571-134.217143-97.828572-89.234286 0-147.2 28.708571-215.405714 86.125715a571.062857 571.062857 0 0 0-149.942857 203.52 115.748571 115.748571 0 0 1 21.394285-134.4L429.714286 216.685714a115.748571 115.748571 0 0 1 163.657143 0l213.942857 213.942857a115.748571 115.748571 0 0 1 0 163.84L594.651429 807.314286a115.748571 115.748571 0 0 1-150.674286 11.154285 1695.451429 1695.451429 0 0 0 153.6-187.062857c16.64-24.32 48.091429-50.834286 74.057143-72.594285C694.491429 539.428571 713.142857 523.702857 713.142857 516.388571c0-7.314286-36.571429-22.674286-36.571428-22.674285v27.428571s-86.125714 41.142857-144.457143 64.548572c-58.514286 23.405714-148.114286 54.857143-148.114286 54.857142l26.331429 26.514286s32.731429-6.948571 78.262857-35.657143c9.874286-6.217143 18.285714-9.691429 24.502857-9.691428 10.971429 0 17.188571 6.582857 17.188571 15.36 0 8.411429-5.668571 19.565714-8.045714 24.32l-0.548571 0.914285c-21.577143 42.788571-81.92 94.537143-132.022858 103.862858z" p-id="2370"></path></svg>