<?xml version="1.0" standalone="no"?><!DOCTYPE svg PUBLIC "-//W3C//DTD SVG 1.1//EN" "http://www.w3.org/Graphics/SVG/1.1/DTD/svg11.dtd"><svg t="1777188075281" class="icon" viewBox="0 0 2127 1024" version="1.1" xmlns="http://www.w3.org/2000/svg" p-id="1895" xmlns:xlink="http://www.w3.org/1999/xlink" width="415.4296875" height="200"><path d="M0 1.502368v1021.344585h205.191124v-1021.344585H0m455.339854 1021.344585v-994.831125c0-6.940763 1.615016-16.207793-0.366577-22.884574-1.183884-3.988547-5.450245-3.604678-8.855496-3.627733-7.77536-0.053027-28.873158-3.700357-35.040419 1.183883-3.250781 2.574111-1.847873 10.169641-1.847873 13.800833v991.372847c0 3.598914-1.205786 10.120072 1.185037 13.137996 2.30206 2.906106 8.26413 1.847873 11.495314 1.847873h33.430014m77.234862 0v-994.831125c0-6.940763 1.615016-16.207793-0.366578-22.884574-1.287632-4.337833-6.397813-3.620816-10.008254-3.628886-8.140785-0.016139-32.573515-4.076156-38.498697 1.849026C480.387005 6.664423 481.853314 14.535463 481.853314 18.793755v955.637314c0 11.526438-0.115276 23.058641 0.004611 34.582774 0.034583 3.314182-0.687044 10.229584 2.089953 12.648073 2.787372 2.428863 9.472222 1.185036 12.891305 1.185037h35.735533m23.055182 0h54.179679c5.148222-27.730774 1.152759-59.409747 1.152759-87.609694v-912.985227c0-5.076751 1.593113-13.653279-1.359103-18.077568C607.104051 0.429149 600.981748 1.503521 597.129227 1.502368c-10.182321 0-29.688159-3.8018-38.827233 0.696266C554.056382 4.287434 555.629898 12.64609 555.629898 16.488237v1006.358716m132.5673-816.153461v-186.746978l-1.185037-16.59512L675.516847 1.502368h-33.430014l-12.278038 1.849026L629.406482 15.335477v178.677665l0.959096 11.495314L645.54511 206.693492h42.652088m14.985868-205.191124c-5.67388 19.194592-1.152759 45.666553-1.152759 65.70727v139.483854h63.401752v-205.191124h-62.248993m140.636614 205.191124v-175.219387c0-5.876766 3.057117-24.901903-1.847873-28.786701-5.565521-4.406998-23.473634-1.185036-30.429383-1.185036-7.062955 0-31.040345-3.754536-35.703256 2.009259C773.447193 6.466149 774.654132 12.945808 774.654132 16.488237v176.372146c0 3.354529-1.051316 9.16213 1.185036 11.985236 2.92455 3.692287 13.072288 1.847873 17.25911 1.847873h50.721402m4.611036-205.191124v205.191124h102.595562c10.186932 0 31.257064-4.024282 40.101032 1.185037 8.426669 4.964934 14.885579 22.709355 19.669529 31.092219 5.141306 9.013424 13.075747 18.958277 16.219321 28.818978 3.068645 9.620928 1.24498 22.278223 1.24498 32.277255 0 14.449836 3.219656 33.345863-0.734308 47.263124-2.881898 10.139669-10.536218 19.819388-15.861966 28.818979-5.331511 9.012271-11.602521 27.900229-20.671276 33.397737-8.637624 5.236985-29.93946 1.185036-39.967312 1.185036h-102.595562v204.038365h102.595562c10.027852 0 31.329687-4.051948 39.967312 1.185037 8.432433 5.111334 14.425628 22.672466 19.312173 31.092219 5.579354 9.612858 13.85847 19.885095 16.927115 30.635726 4.448497 15.580692 1.028261 36.218539 1.028262 52.362931 0 8.36442 1.500892 18.436077-0.922208 26.51346-2.795441 9.316599-9.907965 18.114457-14.724192 26.51346-5.355719 9.34196-12.039416 28.984975-21.48743 34.550496-8.843968 5.210471-29.914099 1.185036-40.101032 1.185037h-102.595562v204.038365h238.621139c6.437007 0 16.731146 1.958538 22.675925-0.695114 6.896958-3.077867 11.937973-17.203777 15.539193-23.512828 11.853822-20.768108 23.56816-41.710283 35.79317-62.248993 16.342666-27.456417 32.171202-55.251745 48.011265-82.998657 7.187453-12.591588 18.517923-26.355532 22.493789-40.346569 5.153986-18.14097 0.734308-43.382937 0.734308-62.248993v-86.456934c0-13.391603 2.48189-29.578646-0.454187-42.652088-1.966607-8.758664-9.288933-17.598021-13.702848-25.360701-10.528149-18.515617-21.34103-36.865237-31.95333-55.332438-4.337833-7.548267-14.274616-18.8845-14.937453-27.666219-0.624795-8.29756 10.794436-21.787147 14.924772-28.818978 11.231332-19.121968 22.275917-38.377657 33.268629-57.637956 4.509594-7.898706 12.237691-17.214152 12.803695-26.51346 2.530306-41.543133 0.050721-84.021154 0.050722-125.650744 0-18.824557 4.461178-44.162202-0.735461-62.248993-3.368362-11.720102-12.656142-22.796964-18.5087-33.430015-16.468317-29.914099-34.317639-59.10196-51.24706-88.762452-12.311467-21.569276-24.968763-42.943736-37.204148-64.554511-3.590845-6.340175-8.736761-20.637847-15.769745-23.511676C1102.304011-0.471156 1091.732057 1.502368 1084.746337 1.502368H848.430716m462.256409 2.305518l1.152759 49.568643v137.178335l0.402313 14.290755 18.041833 1.847873h287.037022v800.014833l1.185037 15.443514 13.800832 1.847873h189.052497v-720.474453l1.152759-96.831767h305.481168v-204.038365h-790.79276l-26.51346 1.152759m-682.433402 408.07673l1.152759 50.721402v137.178336l0.959096 13.800832L645.54511 614.770222h42.652088v-204.038365c-18.364606 0-42.348912-4.04849-59.943475 1.152759m73.776584-1.152759v204.038365h63.401752v-136.025576c0-21.103561-3.738398-46.316709 1.152759-66.86003-18.877583-5.579354-44.843483-1.152759-64.554511-1.152759m72.623825 0v204.038365h69.165548v-204.038365h-69.165548m-145.24765 408.076731v190.205255l0.959096 12.648073L645.54511 1022.846953h42.652088v-204.038365h-58.790716m72.623825 0v204.038365h63.401752v-204.038365h-63.401752m141.789373 204.038365v-204.038365h-50.721402l-17.25911 1.849025L774.654132 832.641697v177.524905l1.847873 11.495314L794.251037 1022.846953z" p-id="1896"></path></svg>