<?xml version="1.0" standalone="no"?><!DOCTYPE svg PUBLIC "-//W3C//DTD SVG 1.1//EN" "http://www.w3.org/Graphics/SVG/1.1/DTD/svg11.dtd"><svg t="1777188070337" class="icon" viewBox="0 0 4375 1024" version="1.1" xmlns="http://www.w3.org/2000/svg" p-id="1742" xmlns:xlink="http://www.w3.org/1999/xlink" width="854.4921875" height="200"><path d="M1803.504153 4.168023c-3.41701 1.145949-5.69849 27.888222-5.69849 63.735579 0 52.921991 1.145949 62.027074 9.678057 65.444084 10.813588 3.979567 30.159284-14.793155 30.159284-28.450779 0-12.522093 43.816908-47.806893 63.735579-51.213485 10.240614-2.28148 31.867789-2.854454 47.223501-1.708505l28.461197 1.708505 1.698087 170.704674c0.572974 93.894863 0 176.413582-1.698087 182.66421-2.854454 12.522093-22.762707 23.335681-48.36945 26.179717-10.251031 1.145949-14.793155 5.688072-15.939103 15.36613-1.145949 7.396577 0.572974 14.793155 3.41701 17.074634 4.552541 2.844036 223.064108 3.979567 273.142063 1.135531 10.813588-0.572974 13.08465-3.41701 11.376145-15.939104-1.698088-13.08465-5.115098-16.50166-22.762707-19.345696-11.949119-1.708505-26.742274-7.969552-33.00332-13.647206-10.80317-9.688475-11.376145-17.647609-11.376145-182.101654 0-125.762653 1.708505-172.996571 6.823603-178.111669 8.542526-8.542526 60.891543-9.105083 82.508301-0.572975 22.20015 8.542526 43.827326 30.159284 56.339001 56.911976 7.396577 17.064217 12.522093 22.189732 21.627176 21.043784 11.386562-1.698088 11.949119-5.688072 13.657624-60.881125 0.572974-32.440764-0.572974-61.464517-3.41701-64.298136-4.552541-4.552541-494.497666-9.688475-507.582316-5.69849zM3196.529717 5.876529c-7.396577 3.989985-10.251031 13.095067-10.251032 30.732258v25.606743h-61.454099c-51.776042 0-63.735579-1.708505-71.132156-10.240613-4.552541-5.125516-23.335681-17.647609-40.972872-26.752692L2980.862186 8.158008l-11.386562 13.647207c-5.688072 7.396577-10.813588 15.366129-10.813588 18.783139 0 9.678057 58.610063 67.152589 68.28812 67.15259 5.688072 0 13.08465-3.989985 17.074634-8.542527 3.979567-4.552541 9.105083-8.532108 11.949119-8.532108s5.115098 3.979567 5.115098 8.542526c0 6.823603 10.251031 8.532108 59.183038 8.532109 48.36945 0 59.756012 1.708505 62.600048 9.105082 8.532108 22.762707 5.115098 25.033769-44.379465 25.033769-43.254352 0-48.942424 1.145949-56.911976 12.522093-5.125516 6.823603-9.105083 18.210165-9.105083 24.471212-0.572974 11.376145-0.572974 11.376145-6.83402 0-10.240614-18.78314-22.189732-25.044186-39.826924-21.627176-10.240614 2.271062-19.918671 0-26.179717-5.125516-13.08465-11.949119-44.379465-27.315248-54.630496-27.315248-4.552541 0-11.376145 5.125516-14.793155 11.386563-8.542526 15.939104 7.969552 42.108403 42.108403 67.715145l25.606743 19.345697-10.813588 27.315248c-6.250629 15.366129-23.335681 57.474532-38.128836 93.321889-29.58631 73.413636-29.58631 77.393203 5.69849 95.603368 33.576295 17.074634 37.555862 11.376145 73.965774-105.271008 18.220583-56.911976 35.2848-109.260992 38.128836-115.522039 2.854454-7.396577 5.125516 32.440764 5.125516 106.416957 0.572974 126.887766 2.844036 135.430292 31.294815 135.430291 25.617161 0 31.305233-10.813588 33.013738-62.600048l1.698088-48.369449 21.627176-1.698088 21.054201-1.708505v44.952439c0 54.06794 9.105083 67.715146 42.108403 61.464517 23.898238-4.562959 26.179717-10.251031 26.179717-63.745996v-42.108403h45.525414v25.044186c0 20.481227-2.28148 26.169299-11.386562 29.023753-13.08465 3.979567-14.793155 18.199748-4.552542 39.826924 11.386562 25.044186 50.077955 26.179717 72.840662 1.708505 10.813588-11.949119 11.386562-19.918671 11.386562-146.816854 0-161.610009 3.406593-153.640457-67.152589-153.640457h-46.660945v-34.138851h59.745594c59.183038 0 60.318568 0 66.579615-14.793155 6.834021-14.230598 5.125516-16.512078-22.189732-42.118821-34.138851-31.857372-57.474532-39.826924-68.28812-25.033769-3.979567 5.688072-7.396577 15.939104-7.396578 23.335681 0 10.240614-3.41701 13.08465-13.647206 13.08465-13.095067 0-14.230598-2.28148-13.095067-23.335681 0.562557-17.064217-2.28148-25.606743-10.240614-31.294815-12.522093-9.105083-30.159284-10.240614-43.816908-1.708505z m-15.939104 195.74886c0 19.356114-0.562557 19.918671-22.762707 19.918671-22.189732 0-22.762707-0.562557-22.762706-19.918671 0-19.345696 0.572974-19.908253 22.762706-19.908253s22.762707 0.562557 22.762707 19.908253z m113.813534 3.41701v22.762707l-21.054202-1.708505c-20.491645-1.708505-21.627176-2.844036-23.335681-23.335681l-1.708505-21.043784H3294.404147z m-113.813534 79.101709v22.762706h-22.762707c-22.189732 0-22.762707-0.572974-22.762706-18.783139 0-23.898238 2.844036-26.742274 26.752691-26.742274 18.210165 0 18.772722 0.572974 18.772722 22.762707z m113.813534 0v22.762706h-45.525414v-45.525413h45.525414zM3972.138998 10.42907c-6.834021 6.834021-11.949119 15.366129-11.949119 19.918671 0 4.552541-10.240614 42.681377-23.335681 85.352337-18.772722 62.600048-21.627176 79.674682-16.50166 85.925311 10.240614 12.522093 34.138851 10.251031 50.077955-3.979567l13.084649-13.08465-1.708505 25.606743c-1.698088 25.033769-2.271062 25.606743-24.460794 28.450779-21.627176 2.844036-22.762707 3.979567-22.762707 22.762707 0 19.345696 0.562557 19.918671 25.033769 21.627176l24.471212 1.698087-2.28148 47.806893c-1.698088 34.711826-5.115098 51.213486-12.511675 59.17262-12.522093 13.668042-7.396577 36.420331 11.949119 51.78646 20.481227 15.939104 32.430346 14.230598 56.901558-7.396578 66.006641-56.901558 80.810213-67.142172 94.457419-63.735578 9.105083 2.28148 32.440764-4.552541 71.705131-22.189733 79.664265-34.711826 85.925311-39.264367 85.925311-62.58963 0-26.752691-12.522093-36.420331-35.847356-26.752692-10.240614 3.989985-46.098388 18.210165-80.810214 31.878208-86.487868 32.992903-102.989528 40.38948-107.542069 47.786057-9.105083 14.230598-14.793155 4.552541-14.793155-25.033768v-31.294815h19.908253c15.939104 0 21.627176-2.844036 26.742274-14.230599 8.542526-18.772722-2.271062-31.294815-27.304831-31.294815-18.78314 0-19.356114-0.572974-19.356114-22.189732 0-28.450779 8.542526-34.149269 23.335681-15.36613 15.939104 19.918671 29.58631 18.772722 55.766027-5.125515l22.189733-19.918671 33.576295 37.566279c30.159284 33.565877 35.847356 37.555862 49.50498 34.138852 8.542526-2.28148 18.210165-9.678057 21.627176-17.637191 7.969552-18.210165-2.28148-34.149269-43.816908-66.579615-21.054202-16.50166-30.732259-27.888222-29.58631-35.857775 1.135531-10.80317 4.552541-11.376145 58.037089-9.094665 31.294815 1.135531 58.047507 2.844036 59.756011 4.552542 5.688072 5.688072 6.250629 232.169191 0.562557 247.524902-3.41701 10.251031-11.376145 17.085052-21.627176 19.356114-35.274382 8.532108-39.826924 27.877805-13.08465 54.630497 15.939104 15.355712 19.918671 17.064217 40.399898 13.647206 12.522093-2.271062 29.58631-7.959134 36.982888-13.08465 29.596728-18.772722 30.732259-27.877805 30.732258-206.562448 0-157.620024-0.562557-165.589576-11.376144-176.403164-13.647206-13.657624-34.138851-14.793155-57.474533-2.844036-11.376145 6.250629-29.023753 8.542526-55.193052 7.396577l-38.128836-1.708505 1.708505-23.335681c2.271062-27.877805-7.396577-37.555862-36.982888-38.691392L4157.063853 2.469936l-17.637192 48.36945c-19.345696 52.921991-44.952439 105.281425-54.067939 110.969497-3.406593 1.708505-9.667639-0.572974-14.793155-5.125516-6.250629-6.250629-19.345696-9.105083-43.233516-9.105082-33.013738 0-34.149269-0.562557-30.732259-13.08465 1.698088-6.834021 3.406593-14.230598 3.406593-16.50166 0-2.28148 22.189732-5.125516 50.077955-5.688072l49.50498-1.708506V90.666309c0-22.189732-9.105083-26.742274-53.484547-27.888222l-24.471212-0.562557 3.41701-18.78314c3.979567-22.189732-4.552541-35.847356-26.179717-40.972872-10.813588-2.844036-18.210165-0.562557-26.742274 7.969552zM5.312827 18.398622c0 14.220181 9.105083 21.043784 29.023753 21.043784 6.250629 0 17.637191 6.271464 25.033769 14.241016l14.230598 13.647206v162.182983c0 92.186358-2.28148 168.433612-5.69849 176.403164-5.688072 14.793155-17.637191 22.762707-47.223501 29.023754C3.604322 438.347121-5.511179 452.015163 3.604322 461.120246c4.552541 4.552541 228.189624 9.105083 273.715037 5.688072 4.552541-0.572974 6.823603-6.261047 5.688072-15.939104-1.145949-13.08465-5.125516-16.50166-22.762706-19.345696-28.450779-4.552541-36.420331-12.522093-40.972872-39.826923-5.688072-34.149269 2.28148-130.325612 10.813587-130.325612 10.240614 0 86.498286 81.956162 170.142118 182.101654l16.50166 19.918671 80.237239 3.41701c44.379465 1.708505 85.925311 1.135531 93.321889-1.145949 19.918671-7.396577 15.939104-25.033769-9.105083-34.701407-15.939104-6.261047-41.535429-30.732259-93.884445-89.904879-39.837341-44.389883-72.278105-83.091693-72.278105-85.935729 0-2.271062 14.793155-11.376145 32.440764-20.481227 61.464517-30.159284 85.352337-91.050827 58.610063-146.816854-15.939104-32.440764-40.399898-51.776042-86.498286-67.152589C386.569934 9.866513 367.234655 8.720565 194.800641 6.449503L5.302409 4.168023zM323.980304 61.642556c26.169299 13.657624 41.535429 40.972872 40.972872 71.70513-0.572974 60.318568-42.681377 87.633817-127.471158 83.081276l-15.939104-0.572975v-78.528734c0-43.243934 1.708505-80.799796 3.989985-82.5083 8.542526-8.542526 79.101708-3.989985 98.447405 6.823603zM634.678228 14.981611c-5.125516 12.522093 10.240614 24.471212 31.294815 24.471212 10.240614 0 19.918671 5.125516 27.315249 14.793155 11.386562 14.793155 11.949119 21.627176 11.949118 178.111669 0 118.928632-2.271062 166.735525-7.396577 176.976139-6.823603 13.647206-17.074634 18.772722-50.640511 25.606743-17.085052 3.41701-20.491645 14.793155-8.542527 26.742273 10.813588 10.240614 466.619862 10.813588 476.860476 0.572975 7.396577-7.396577 29.023753-137.138797 24.481629-145.108349-8.542526-13.08465-25.044186-2.28148-41.545846 26.742274-27.888222 49.504981-61.464517 66.579615-149.098334 73.976192-54.057522 4.552541-88.75893-3.41701-93.321889-21.616758-1.708505-6.834021-2.271062-42.118821-1.708505-77.966177l1.708505-65.433667 24.471212 0.562557c31.294815 0.572974 51.213486 15.366129 69.996626 51.213486 26.169299 50.650929 30.732259 40.399898 32.430346-73.965775 0.572974-61.464517-0.562557-104.145894-3.979567-107.552487-8.542526-8.542526-20.491645 3.979567-28.450779 29.58631-9.678057 33.00332-39.837341 57.474532-71.705131 57.474532h-25.606743v-73.976192c0-87.633817-1.708505-85.362755 69.996626-85.362755 81.935327 0 130.87775 23.908655 146.806436 72.278105 4.552541 14.220181 9.105083 18.772722 19.918671 18.772722h14.230598l-1.708505-67.142172-1.708505-66.579615L869.691456 6.449503c-215.094557-1.145949-231.596217-0.572974-235.023645 8.542526zM1228.75883 19.534153c0 11.949119 3.41701 14.793155 22.762707 17.637191 42.681377 6.834021 42.681377 5.125516 44.379465 195.186303 1.718923 165.016602 1.145949 169.579561-10.230196 184.372716-7.396577 9.105083-17.647609 15.366129-25.606743 15.366129-22.189732 0-31.305233 6.250629-31.305233 20.481228 0 11.386562 2.844036 13.657624 18.78314 13.657624 175.83019 2.28148 256.067429 0.572974 261.755501-5.115098 10.813588-10.813588-3.406593-25.606743-27.304831-29.58631-38.128836-6.271464-43.254352-18.78314-41.545846-98.447405l1.708505-68.861094 65.444084-3.417011c121.199693-6.823603 187.206334-49.504981 188.914839-121.199693 1.145949-69.423651-46.08797-113.240559-137.701353-128.033714-20.491645-3.41701-102.999946-6.261047-183.237185-6.261047h-146.816854z m287.945636 39.837341c23.898238 15.939104 33.565877 36.420331 33.565877 73.965775-0.562557 42.118821-12.511675 66.590033-39.264367 79.101708-22.762707 10.813588-55.193053 11.949119-64.87111 2.281479-7.396577-7.396577-10.240614-158.765973-2.271062-166.16255 6.250629-6.834021 58.037089 0.572974 72.840662 10.813588zM2706.574174 8.720565c-2.271062 2.28148-3.979567 22.762707-3.979567 46.098388v41.535428h-15.939103c-15.355712 0-16.50166-1.708505-21.616759-35.847356l-5.125515-35.2848-22.189733-1.708505c-27.888222-2.271062-31.867789 3.41701-31.867789 51.223903 0 61.454099-0.572974 61.454099 132.586256 61.4541 132.023699 0 129.179663 1.145949 129.179663-60.891543 0-47.233919-6.834021-56.328584-36.420331-50.640512-22.189732 3.979567-26.179717 11.376145-26.179717 46.660945 0 25.033769-0.572974 25.606743-15.36613 23.898237-15.366129-1.708505-15.939104-2.844036-18.772722-44.379464l-2.844036-42.681378-28.461197-1.708505c-15.939104-1.145949-30.732259 0-33.00332 2.271062zM3519.739317 14.419055c-11.949119 11.949119-11.949119 13.08465 7.969552 43.80649 26.179717 40.972872 24.471212 43.816908-25.606743 43.816909-39.826924 0-43.243934 1.145949-49.504981 13.657624-14.230598 32.440764-17.074634 32.440764 198.592897 30.732258l198.040757-1.708505 1.698088-13.08465c3.41701-22.762707-7.969552-29.58631-50.640512-29.58631-43.816908 0-46.671362-3.41701-27.888222-31.305233 21.627176-32.430346 9.678057-54.630496-33.00332-63.162604-15.939104-3.41701-18.78314-1.708505-23.898238 12.522093-3.41701 9.105083-13.095067 31.294815-21.054202 48.932006l-14.793155 33.003321h-59.183037l-3.989985-21.616759c-3.406593-22.762707-20.481227-42.681377-54.620078-63.162604-23.908655-14.230598-30.732259-14.793155-42.108403-2.844036zM2447.652292 40.598772c-15.355712 15.355712-3.406593 38.691393 19.929088 38.691393 12.511675 0 13.08465 1.698088 13.08465 48.359031 0 47.233919-0.572974 48.36945-13.657624 48.36945-18.210165 0-28.450779 13.657624-23.898238 31.305233 2.844036 11.376145 7.396577 14.220181 20.481227 14.220181h17.074635V329.669521l-18.210166 11.376145c-10.240614 5.688072-22.189732 13.657624-26.179717 17.074634-8.532108 7.969552-3.406593 33.00332 10.251031 47.796475 9.105083 9.105083 12.511675 9.678057 31.857372 3.417011 37.566279-11.949119 97.311874-44.379465 101.291441-54.06794 5.125516-13.647206-9.105083-39.826924-21.043784-39.253949-7.969552 1.135531-9.688475-5.125516-10.251031-38.128836-0.572974-21.627176-1.145949-42.108403-1.708506-46.08797-0.562557-3.989985 5.688072-8.542526 13.657624-10.251031 10.813588-2.271062 14.793155-7.396577 15.939104-21.043784 1.698088-14.803573-0.572974-18.220583-13.095067-21.064619-14.793155-3.979567-14.793155-3.979567-13.08465-53.484548l1.708505-49.515398 19.918671-2.844036c21.616758-2.844036 29.013336-17.064217 17.064216-31.294816-9.105083-10.813588-130.304776-12.522093-141.118364-1.708505z" p-id="1743"></path><path d="M2590.489579 168.059512c-1.708505 4.552541-0.562557 14.793155 2.844036 22.762707 6.261047 13.08465 9.105083 13.647206 52.359434 13.647206 35.836939 0 45.525413 1.708505 45.525414 7.969552 0 13.095067-10.813588 17.074634-42.118821 15.366129-47.796475-2.271062-48.36945-1.145949-49.504981 111.532054-1.145949 106.989931 1.145949 115.522039 28.450779 115.522039 31.878207 0 34.149269-6.834021 35.857774-93.894863l1.698088-79.664265 18.210165-1.708505 18.210166-1.708505 1.708505 75.684698 1.708505 75.684697 30.159284 1.708506 29.58631 1.698087v-69.986208c0-38.70181 2.28148-73.413636 5.125516-77.393203 2.844036-4.552541 11.949119-6.823603 21.054202-5.688072l16.50166 1.708505v53.484548c0 48.942424-1.145949 54.06794-12.522093 62.027074-14.220181 9.105083-16.50166 23.898238-7.396578 41.545846 11.386562 21.043784 72.267687 9.105083 81.945744-15.939104 2.28148-5.688072 5.688072-46.08797 7.396578-89.904878 3.989985-102.426971 4.552541-101.864415-66.006641-104.135477-48.36945-2.28148-51.213486-2.844036-45.525413-13.095067 4.552541-9.105083 11.949119-10.80317 51.213485-10.80317 25.044186 0 50.650929-2.854454 56.901558-5.69849 13.095067-7.396577 14.230598-31.294815 1.708506-36.420331-5.115098-1.698088-69.986208-3.406593-145.108349-3.406593-118.355657 0-136.57624 1.135531-139.982833 9.105083zM3470.807311 249.432282c-3.979567 7.396577-3.979567 15.939104 0 25.606743l5.688072 14.793155h172.413179c180.966123 0 186.091639-0.572974 186.091639-25.606743s-5.125516-25.606743-186.081221-25.606743c-164.454045 0-172.413179 0.572974-178.111669 10.813588zM3432.115918 393.394682c-3.989985 3.989985-6.834021 11.959537-6.834021 18.78314 0 25.606743 2.28148 25.606743 228.762599 25.606743h215.094556l5.688072-14.793155c3.989985-9.678057 3.989985-18.210165 0-25.606743-5.688072-10.240614-14.220181-10.813588-220.782628-10.813588-159.911921 0-216.813479 1.708505-221.928578 6.823603zM3767.847612 597.113094c-190.633762 51.223903-254.358923 231.606634-124.616704 351.108241 29.013336 26.742274 77.382785 52.921991 122.908198 66.569197 36.420331 10.824006 143.399844 12.522093 189.498232 2.854454 75.684698-15.939104 154.775988-73.976192 184.935272-134.867736 30.732259-63.162605 17.647609-145.108349-33.00332-203.145437-26.742274-30.159284-79.101708-63.162605-124.054148-77.393203-56.328584-17.637191-160.46406-20.481227-215.66753-5.125516z m143.972817 33.576295c72.840662 33.00332 110.396523 138.847302 85.352337 236.721732-37.555862 143.972818-185.508247 167.308499-248.670851 38.70181-17.637191-35.847356-18.78314-42.681377-18.783139-95.603368 0-64.87111 6.834021-91.613384 31.878207-129.742219 35.274382-52.921991 97.864012-73.965775 150.223446-50.077955zM18.397477 600.530105c-10.240614 4.552541-9.105083 23.335681 1.708505 27.315248 5.125516 1.708505 15.366129 3.41701 22.762707 3.41701s18.78314 5.115098 25.033768 11.376145c10.813588 10.813588 11.386562 18.78314 11.386562 162.182983s-0.572974 151.369395-11.386562 162.172566c-6.250629 6.261047-18.210165 11.386562-26.742274 11.386562-21.043784 0-31.867789 7.396577-29.023753 20.481227 1.708505 10.251031 10.251031 10.813588 152.515344 12.522093 118.34524 1.145949 161.037035-0.572974 199.155453-7.969552 99.593353-18.210165 142.264313-51.776042 142.264313-111.532054 0-40.972872-31.294815-76.820229-81.945745-93.894863-25.033769-7.959134-23.335681-14.220181 6.834021-28.440361 31.294815-14.803573 47.233919-38.128836 47.796476-69.434069 0.572974-47.223501-31.294815-76.257672-100.145492-91.613384-26.752691-5.688072-348.264204-13.08465-360.213323-7.969551z m285.653738 51.213485c18.78314 9.105083 36.993305 36.982887 36.993305 57.474533 0 5.688072-5.115098 18.210165-11.376144 28.450779-8.542526 14.230598-18.210165 20.491645-42.681378 27.315248-18.210165 5.688072-38.691393 7.969552-48.369449 5.688072l-17.064217-3.979567v-58.037089c0-32.440764 1.698088-60.318568 3.979567-62.027074 6.823603-7.396577 59.745594-3.989985 78.528734 5.115098z m13.095068 175.267633c53.494965 27.888222 52.921991 109.260992-1.708506 132.023699-23.898238 9.667639-77.382785 10.813588-87.060842 1.135531-7.396577-7.396577-9.678057-136.003266-2.271062-143.399843 6.823603-7.396577 71.121739 0 91.050827 10.240613zM862.294878 610.770718c-5.125516 7.969552-9.105083 15.366129-9.105083 17.085052 0 1.125113-38.691393 71.121739-85.925311 155.338545-82.508301 147.389828-100.15591 172.423597-142.264313 201.44735-8.532108 5.688072-11.376145 11.949119-9.105082 18.772722 3.41701 8.542526 13.095067 9.105083 84.800198 7.969552 78.518316-1.708505 81.362352-2.271062 83.070857-14.230598 1.145949-8.532108-1.708505-13.08465-11.376144-15.928686-39.837341-11.376145-48.36945-29.58631-30.159284-65.444084 7.396577-13.647206 13.08465-17.064217 39.264366-19.908253 17.064217-2.28148 53.484548-3.41701 80.226822-2.28148 47.233919 2.28148 50.077955 3.41701 63.173022 19.345697 27.877805 34.149269 24.460794 56.911976-9.678057 68.28812-13.08465 4.552541-19.345696 10.240614-19.345696 17.637191 0 10.251031 5.688072 10.813588 125.189678 10.813588h125.189678V997.153341c0-9.667639-6.823603-16.50166-25.033768-25.606743-29.58631-15.355712-33.013738-21.043784-148.52536-231.596217-81.945744-149.087916-90.477853-158.765973-110.396523-129.179663z m-1.145949 184.372716c14.230598 24.48163 26.190135 47.806893 26.190135 51.213486 0 4.552541-16.512078 6.834021-54.067939 6.834021-29.58631 0-54.057522-1.708505-54.057522-3.417011 0-4.552541 51.776042-99.009961 54.067939-99.009961 1.135531 0 13.647206 19.908253 27.877805 44.379465zM1240.134974 611.906249c-8.532108 21.627176-6.823603 95.040812 2.291898 107.552487 10.230196 14.230598 23.88782 7.969552 33.565877-15.928686 16.50166-39.264367 73.976192-67.715146 117.7931-58.047506l17.074635 3.989985v155.911519c0 155.35938 0 155.921937-12.522093 163.891488-7.396577 4.552541-21.627176 9.678057-31.294815 11.949119-21.054202 4.552541-26.179717 9.105083-21.054202 22.189732 3.406593 8.542526 18.772722 9.105083 138.274328 7.969552l134.294761-1.708505v-14.220181c0-11.959537-3.41701-14.793155-21.627176-17.647609-40.962454-6.823603-40.962454-5.115098-42.67096-170.715091-1.145949-106.979513 0-150.796421 5.115098-156.484494 14.230598-17.074634 84.800198-3.979567 110.969498 21.054202 6.823603 6.250629 16.50166 21.627176 22.189732 34.138851 10.813588 22.762707 18.210165 27.315248 30.159285 15.366129 8.542526-8.542526 9.105083-97.301456 1.145948-113.240559-5.69849-10.240614-14.793155-10.813588-242.420222-10.813588h-236.159176zM1826.256442 605.082646c-3.406593 3.41701-5.688072 29.58631-5.688072 58.610063 0 44.962857 1.708505 53.494965 10.240613 58.047507 11.386562 6.250629 23.908655-1.708505 23.908656-14.793155 0-3.989985 7.959134-15.939104 17.064216-26.752692 27.315248-30.732259 92.196776-47.796475 116.084596-30.159284 8.542526 6.261047 9.678057 19.918671 7.969552 155.921937-1.708505 136.57624-2.844036 149.66089-12.522093 160.474478-6.823603 7.396577-17.637191 11.949119-29.013336 11.949119-19.356114 0-27.888222 10.240614-22.189732 25.606743 2.833618 7.396577 22.189732 8.542526 138.274328 7.396577l134.284343-1.708505v-14.220181c0-11.959537-3.406593-14.793155-21.616758-17.647609-40.972872-6.823603-40.972872-5.115098-42.681378-170.715091-1.135531-113.803116 0-150.223447 5.69849-157.057468 5.115098-6.823603 14.793155-7.959134 39.826924-5.688072 44.379465 3.989985 73.976192 21.627176 92.759332 55.766027 7.959134 15.366129 16.50166 27.888222 18.772722 27.888222 15.939104-0.572974 18.78314-11.386562 17.074634-68.861094l-1.708505-59.17262H2072.093675c-144.545792 0-242.982779 2.271062-245.837233 5.115098zM2425.462559 601.103079c-3.979567 1.145949-7.396577 8.542526-7.396577 15.939103 0 10.80317 3.989985 13.08465 23.335681 15.928686 41.535429 5.688072 40.972872 2.271062 41.535428 170.715092 0.572974 140.555807 0 151.369395-10.240613 162.74554-6.823603 7.396577-17.637191 11.949119-29.023753 11.949119-22.762707 0-35.836939 13.08465-25.606743 25.606743 6.261047 7.396577 38.70181 8.542526 230.471103 8.542526 172.413179 0 224.772614-1.718923 229.325155-7.396578 6.250629-7.396577 22.762707-117.803518 19.345696-128.617106-5.125516-15.939104-23.335681-5.115098-39.837341 24.48163-20.481227 35.274382-47.223501 51.776042-101.29144 60.318568-66.569197 10.80317-116.084596 5.677655-128.596271-13.668042-6.834021-9.667639-5.125516-121.783085 1.135531-125.752235 3.41701-2.28148 17.074634-1.708505 30.159284 0 23.898238 4.552541 44.952439 21.616758 68.861094 56.901558 10.240614 15.366129 11.376145 15.366129 18.772722 5.115098 5.688072-7.959134 7.396577-30.732259 6.250629-96.155507-1.698088-81.956162-2.271062-85.362755-13.647206-87.07126-9.678057-1.145949-13.657624 3.41701-21.627176 23.898238-14.220181 36.420331-38.128836 55.766027-68.28812 53.494965l-23.335681-1.708505-1.698088-56.911976c-0.572974-31.294815 1.145949-60.881125 4.552542-65.433666 3.979567-6.834021 18.772722-8.542526 69.423651-8.542526 80.799796 0.572974 104.698033 10.813588 126.887765 53.494965 15.939104 31.294815 19.929088 35.847356 30.169702 29.58631 5.115098-2.844036 6.823603-21.616758 5.688073-66.569197l-1.708506-62.027074-213.386051-1.145949c-117.230544-0.562557-216.813479 0.572974-220.23049 2.28148zM2984.841753 606.218177c-12.522093 12.522093-2.28148 25.044186 20.481227 25.044186 9.678057 0 22.189732 5.688072 30.159284 14.220181l14.230599 13.657624v142.826869c0 87.07126-2.28148 147.389828-5.688073 154.223849-7.396577 13.08465-34.711826 27.877805-51.213485 27.877805-9.105083 0-11.949119 2.844036-10.251032 12.522093l1.708506 13.08465 132.586255 1.708505 132.596674 1.145949-1.708506-15.376547c-1.708505-13.647206-5.125516-16.50166-23.335681-19.345697-34.138851-5.688072-36.982887-11.949119-38.691392-81.935326l-1.708505-62.600048 17.074634-1.708505c15.939104-1.708505 23.335681 4.552541 82.508301 73.413636 35.847356 40.962454 70.559182 82.508301 77.955759 91.050827l13.095068 16.491242h84.779363c66.579615 0 85.362755-1.708505 91.050827-8.542526 9.105083-10.80317 3.989985-17.626773-24.471212-30.148867-13.08465-6.261047-39.264367-27.315248-57.474533-47.233918-18.772722-19.918671-48.932006-52.349017-67.715146-71.132157l-33.565877-35.274382 31.857372-14.230598c39.837341-18.210165 58.047507-36.420331 66.017059-66.006641 16.50166-62.600048-26.179717-114.386508-108.125462-130.87775-17.064217-2.854454-105.843982-7.396577-196.894809-9.105083-149.650472-2.854454-166.725107-2.28148-175.257215 6.250629z m302.165816 47.233919c30.159284 14.230598 43.816908 38.70181 39.826924 72.840661-5.115098 44.952439-35.274382 64.298135-100.718466 64.298136h-39.837342v-69.986208c0-38.70181 1.708505-72.267687 3.989985-73.976193 7.969552-8.542526 73.403218-3.41701 96.738899 6.823604z" p-id="1744"></path></svg>