<?xml version="1.0" standalone="no"?><!DOCTYPE svg PUBLIC "-//W3C//DTD SVG 1.1//EN" "http://www.w3.org/Graphics/SVG/1.1/DTD/svg11.dtd"><svg t="1777183484747" class="icon" viewBox="0 0 1308 1024" version="1.1" xmlns="http://www.w3.org/2000/svg" p-id="1906" xmlns:xlink="http://www.w3.org/1999/xlink" width="255.46875" height="200"><path d="M192.576423 751.537584c-36.395811-17.016849-66.283762-30.7637-66.283762-58.578777 0-21.25901 17.008815-36.725221 50.616691-36.725221 12.364934 0 22.472204 1.46226 32.916918 3.374446 5.463389 0.940024 11.29636 1.743464 16.108962 1.743464 29.349646 0 45.91657-17.498913 56.931726-50.713104l4.555502-13.562059c-4.684053-1.912186-52.641358-22.970336-115.173058-22.970336-99.481883 0-151.994692 63.801134-151.962554 129.988482 0 33.398982 10.452748 57.582512 26.818812 76.648132 21.082253 24.51294 51.146961 40.557628 79.275379 54.272341 40.983451 20.110092 77.973807 34.973723 77.973807 64.78133 0.024103 26.441195-27.30891 41.489618-63.84934 41.489618-50.062318 0-93.8096-28.618516-99.401539-32.065272L0 986.262445c7.3113 4.129679 60.249931 37.737555 147.374914 37.737555 92.837439-0.064275 163.138398-53.28411 163.138398-135.186737-0.008034-81.492872-65.166981-111.702199-117.936889-137.275679zM555.698956 789.588481l168.408961-206.483961H604.114222L469.795201 761.29134h-2.008599V583.10452H368.891229l0.024103 437.400518h5.881178c42.759052 0 93.656947-19.780681 93.656947-91.214491v-100.421907h2.008598l136.922166 186.189078h125.858804L555.698956 789.588481z" fill="#E1002A" p-id="1907"></path><path d="M729.715925 114.570719c-34.82107 6.572135-86.450094 38.179447-86.281372 94.074735 0.136585 50.753276 41.634237 81.516975 41.762788 148.025701 0.20086 50.038214-27.373185 83.726434-57.196861 102.406403a460.129823 460.129823 0 0 1 39.778291-1.79167c30.466427-0.080344 48.833055 2.828107 49.97394 3.012898l156.212749-191.692639c-43.385735-64.950052-94.050632-115.349814-144.249535-154.035428z" fill="#E1002A" p-id="1908"></path><path d="M860.93367 632.226813c19.692303-30.611046 22.158862-79.395895 23.830017-129.088631 1.839877-46.350427 11.513289-81.227737 73.522752-81.444665 13.738816-0.048206 26.826846 1.839877 50.528313 1.775601 90.836874-0.40172 150.146781-31.679621 187.040724-52.207501-75.378697-48.061753-185.401708-97.13584-321.898051-102.65547-8.894076 25.091417-78.07022 217.434842-83.300611 232.957294 0.787371 0.93199 12.903239 14.510118 28.032006 40.991485 22.31955 36.371708 34.298834 67.183614 42.24485 89.671887z" fill="#E1002A" p-id="1909"></path><path d="M530.985156 475.122246c-7.897811 0.048206-11.82663-5.198254-12.895205-14.301224-1.004299-9.038695-40.075564-366.464842-45.892466-420.560426-0.843612-7.897811-2.804004-22.399894-2.828107-27.56601C469.353309 4.362918 474.776526 0.01631 481.171904 0.000241c18.511247-0.07231 119.391115 23.556847 226.449434 98.590066-30.844044 8.70125-86.64292 40.782591-86.385819 107.210971 0.20086 58.795705 42.301092 91.15825 42.51802 150.146781 0.321376 95.930681-109.934632 119.134015-132.768383 119.174187zM869.90809 657.736018c1.679189 4.451055 3.261965 8.195083 4.852775 10.814296 2.458525 4.177886 5.664249 6.074003 9.601102 6.057934 2.490663-0.032138 5.543733-0.85968 8.918179-2.386215 8.251324-3.792235 334.439742-155.642307 383.634345-178.339474 7.134543-3.422652 20.648396-9.464518 25.107485-12.075696 4.619777-2.627247 6.732823-6.475723 6.732824-10.380439a12.397072 12.397072 0 0 0-1.896118-6.403413c-6.146312-9.946581-37.705417-43.441976-90.467291-80.046681-41.899372 23.066749-107.315419 58.739465-204.628016 59.13315-23.846085 0.024103-29.245199-1.574741-45.530919-1.510467-47.50738 0.168722-59.366147 20.487708-61.101577 62.12998-0.289238 7.865673-0.425823 18.455006-0.883783 30.064707-1.502432 37.231388-5.897246 88.579209-34.339006 122.942318z" fill="#EE7602" p-id="1910"></path></svg>