<?xml version="1.0" standalone="no"?><!DOCTYPE svg PUBLIC "-//W3C//DTD SVG 1.1//EN" "http://www.w3.org/Graphics/SVG/1.1/DTD/svg11.dtd"><svg t="1777183492267" class="icon" viewBox="0 0 4054 1024" version="1.1" xmlns="http://www.w3.org/2000/svg" p-id="2213" xmlns:xlink="http://www.w3.org/1999/xlink" width="791.796875" height="200"><path d="M2580.357378 884.269708c-61.401915 61.326964-134.989863 94.706292-215.411514 113.276326-129.633123 29.922797-260.333184 34.080333-391.293367 8.566376-198.538883-38.696389-279.970158-159.485378-242.689007-358.844305 38.784565-207.338928 154.961908-323.494226 363.332504-361.701234 127.120084-23.313946 254.275438-23.067051 380.006738 8.51347 176.754804 44.397019 247.939935 151.545057 223.347425 332.836559-13.094255 96.544778-46.689616 183.989711-117.292779 257.357217M2163.29434 400.637595c-28.498742 19.363625-66.793926 32.501968-83.754733 59.201904-66.9306 105.353641-92.246159 222.716961-77.286965 347.394548 5.140707 42.87156 31.994952 71.401164 71.842047 83.049319 72.657683 21.250609 146.832007 22.582078 215.592276-11.6702 28.604554-14.25378 57.914522-38.815427 73.036844-66.317771 54.356588-98.85501 71.780324-206.651148 59.964633-318.935486-5.555138-52.813494-36.192168-88.326701-86.668977-94.164004-54.876831-6.34873-111.142448-0.630464-172.729533 1.44169z" p-id="2214"></path><path d="M1655.47974 538.193403c-89.032115 153.96551-177.041379 305.329805-263.670676 457.49651-11.51589 20.232167-24.067858 27.162863-46.954146 26.863062-96.214115-1.29179-192.459093-0.546696-293.258401-0.546697L929.916942 287.361269h292.896876l84.349927 506.875517c10.008067-14.901879 16.453791-23.393305 21.73999-32.546056 141.395908-244.756753 282.919672-489.416511 423.482309-734.64501 11.471802-20.011725 23.746012-27.78451 46.830698-26.990918 52.434334 1.798807 104.978889 0.564332 166.283809 0.564331-104.745221 181.683888-206.659966 358.460736-310.016402 537.57427z" p-id="2215"></path><path d="M808.510715 763.220597c7.384807 97.858613-31.88914 169.506671-118.65952 203.979391-62.914147 24.984896-131.802272 44.77177-198.838684 47.562566-162.135091 6.745525-324.755154 2.195602-491.008102 2.195603l21.122752-115.083951c17.21652 0 33.053073 0.044088 48.902854 0 118.862326-0.34389 237.751106 0.198398 356.586979-1.688586 29.825803-0.471746 70.188733 4.849724 79.125451-34.045062 8.879404-38.639074-29.539228-52.14776-56.106898-65.352235-66.000335-32.828223-133.914106-61.785484-200.853523-92.744359-26.065062-12.053769-52.729726-23.432985-77.132656-38.392178-63.218357-38.76693-92.876623-97.523541-89.049751-170.564793 3.831282-73.261694 38.908013-132.732537 107.641829-158.52866 60.048401-22.53799 125.092017-39.079958 188.852661-42.91124 149.724206-8.980807 299.999518-8.786818 450.067614-12.146354 3.452122-0.07495 6.952741 1.856122 13.632133 3.756332l-20.174851 114.541663c-60.643594 0-120.378967-1.14189-180.061435 0.290983-72.468103 1.728265-145.050836 3.734287-217.214729 9.977205-17.300288 1.499006-41.645903 16.810907-47.677196 31.823007-10.127105 25.192112 15.960001 34.552079 35.596974 43.453527 94.499077 42.840698 189.183324 85.311054 283.276788 129.042338 60.595097 28.159261 98.771243 75.161904 111.97131 144.834803z" p-id="2216"></path><path d="M3853.039585 402.70975c-59.572246 0-59.585473 0-69.659672 56.168622-32.241847 179.721954-64.435197 359.443907-96.760811 539.148226-1.300608 7.212862-3.681381 14.240553-5.806443 22.30873h-288.668799l110.176912-618.000329h-240.026067l20.412929-115.458702h772.164238l-21.51514 115.833453z" p-id="2217"></path><path d="M2722.361705 1001.888742a1042430.538381 1042430.538381 0 0 0 128.023896-715.162346h290.388247l-109.700757 615.385888h201.964552l-20.523151 117.341276c-9.871393 0.868541-19.403305 2.424862-28.944034 2.438089-143.763455 0.149901-287.531318 0.440884-431.290364-0.586376-10.422498-0.07495-33.762897 13.446962-29.918389-19.416531z" p-id="2218"></path></svg>