<?xml version="1.0" standalone="no"?><!DOCTYPE svg PUBLIC "-//W3C//DTD SVG 1.1//EN" "http://www.w3.org/Graphics/SVG/1.1/DTD/svg11.dtd"><svg t="1777188079511" class="icon" viewBox="0 0 1779 1024" version="1.1" xmlns="http://www.w3.org/2000/svg" p-id="2047" xmlns:xlink="http://www.w3.org/1999/xlink" width="347.4609375" height="200"><path d="M879.90514 962.334901c5.432582-0.487956 14.32036-0.487956 19.750618 0 5.432582 0.487956 0.987531 0.88994-9.875309 0.889939s-15.305567-0.401983-9.875309-0.889939zM1295.978621 107.363195c1.677641-0.671521 3.680586-0.587871 4.452022 0.183565 0.773759 0.771436-0.599489 1.32213-3.048566 1.219891-2.706996-0.111533-3.25769-0.662227-1.403456-1.403456z m-440.42483-46.495277c2.260865-0.587871 5.397728-0.550694 6.970806 0.085973 1.573079 0.636667-0.276509 1.119976-4.110452 1.071181-3.833943-0.046472-5.121219-0.566959-2.858031-1.157154z m62.693107 0.009294c2.237629-0.585548 5.897302-0.585548 8.132607 0 2.237629 0.583224 0.40663 1.061886-4.066303 1.061887s-6.301609-0.478662-4.066304-1.061887zM819.491487 0.526296c1.598638-0.645961 4.212691-0.645961 5.809005 0 1.598638 0.643638 0.29045 1.171095-2.904503 1.171095s-4.500817-0.527458-2.904502-1.171095zM956.732719 0.4775c1.677641-0.671521 3.680586-0.587871 4.452022 0.183565 0.773759 0.771436-0.599489 1.32213-3.048566 1.219891-2.706996-0.111533-3.25769-0.662227-1.403456-1.403456z" p-id="2048"></path><path d="M846.257059 1022.839175c2.260865-0.587871 5.397728-0.550694 6.970806 0.085973 1.573079 0.636667-0.276509 1.119976-4.110452 1.071181-3.833943-0.046472-5.121219-0.566959-2.858031-1.157154z m81.281924 0.009294c2.237629-0.583224 5.897302-0.583224 8.132607 0 2.237629 0.585548 0.40663 1.061886-4.066304 1.061886s-6.301609-0.476338-4.066303-1.061886z m-483.239523-106.994904c6.111073-0.480986 15.521662-0.474015 20.912419 0.013941 5.39308 0.487956 0.395012 0.880645-11.106818 0.873675-11.50183-0.006971-15.914351-0.40663-9.805601-0.887616z m415.274162-187.377595c0-0.483309 1.830998-2.314308 4.066304-4.066303 3.685233-2.890561 3.768883-2.809235 0.878322 0.875998-3.036948 3.871121-4.944625 5.10263-4.944626 3.190305zM1381.238552 111.301701c-0.813261-1.317482 0.118504-1.707848 2.18651-0.913176 4.026802 1.542872 4.763384 3.208894 1.419721 3.208895-1.201302 0-2.8255-1.034003-3.606231-2.295719z m-77.276034-3.952447c2.237629-0.585548 5.897302-0.585548 8.132607 0 2.237629 0.583224 0.40663 1.061886-4.066303 1.061886s-6.301609-0.478662-4.066304-1.061886z m37.177633 0c2.237629-0.585548 5.897302-0.585548 8.132607 0 2.237629 0.583224 0.40663 1.061886-4.066303 1.061886s-6.301609-0.478662-4.066304-1.061886z" p-id="2049"></path><path d="M859.020605 962.390667c2.890561-0.553017 7.073045-0.534428 9.294408 0.048796 2.221364 0.580901-0.144063 1.036327-5.255988 1.010767-5.111925-0.02556-6.928981-0.501898-4.03842-1.057239z m53.442848 0c2.890561-0.553017 7.073045-0.534428 9.294408 0.048796 2.221364 0.580901-0.144063 1.036327-5.255988 1.010767-5.111925-0.02556-6.928981-0.501898-4.03842-1.057239z m-518.047082-51.061155c1.679964-0.671521 3.682909-0.587871 4.454345 0.183564 0.773759 0.771436-0.599489 1.32213-3.048566 1.219891-2.706996-0.111533-3.25769-0.662227-1.403455-1.403455z m683.575846-482.598209c0-0.483309 1.830998-2.314308 4.066303-4.066303 3.685233-2.890561 3.768883-2.809235 0.878322 0.875998-3.036948 3.871121-4.944625 5.10263-4.944625 3.190305z m357.253818-309.843041c4.154601-0.51584 10.951137-0.51584 15.103414 0 4.154601 0.51584 0.755171 0.936412-7.551707 0.936411s-11.703984-0.420572-7.551707-0.936411z m-115.018302-11.601745c3.51561-0.534428 9.266525-0.534428 12.779811 0 3.51561 0.532105 0.638991 0.966618-6.389906 0.966618s-9.903192-0.434514-6.389905-0.966618z" p-id="2050"></path><path d="M410.683909 913.653114c1.677641-0.671521 3.680586-0.587871 4.452022 0.183564 0.773759 0.771436-0.599489 1.32213-3.048566 1.219891-2.706996-0.111533-3.25769-0.662227-1.403456-1.403455z m81.179686 0.046472c1.598638-0.643638 4.212691-0.643638 5.809005 0 1.598638 0.645961 0.29045 1.173419-2.904503 1.173419s-4.500817-0.527458-2.904502-1.171096z m-90.474094-2.370074c1.677641-0.671521 3.680586-0.587871 4.452022 0.183564 0.773759 0.771436-0.599489 1.319806-3.048566 1.219891-2.706996-0.111533-3.25769-0.662227-1.403456-1.403455z m193.195894-89.614361c9.629007-10.258703 11.715602-12.103643 11.715602-10.358618 0 0.371776-4.965538 5.339638-11.03711 11.037109l-11.03711 10.358618z m248.625422-76.678869c5.697472-6.069249 10.665333-11.03711 11.037109-11.03711 1.745025 0-0.099915 2.086595-10.358618 11.715602l-11.037109 10.358618z m82.585464-457.168707c4.991097-5.111925 9.5988-9.294408 10.237791-9.294408 0.638991 0-2.923091 4.182484-7.914189 9.294408s-9.596477 9.294408-10.23779 9.294408c-0.638991 0 2.923091-4.182484 7.914188-9.294408z m20.912419-20.912419c4.991097-5.111925 9.5988-9.294408 10.237791-9.294408 0.638991 0-2.923091 4.182484-7.914189 9.294408s-9.596477 9.294408-10.237791 9.294409c-0.638991 0 2.923091-4.182484 7.914189-9.294409z m228.874804-56.642447c0-0.483309 1.830998-2.314308 4.066303-4.066304 3.685233-2.890561 3.768883-2.809235 0.878322 0.875998-3.036948 3.871121-4.944625 5.10263-4.944625 3.190306z m13.941612-13.941613c0-0.483309 1.830998-2.314308 4.066304-4.066303 3.685233-2.890561 3.768883-2.809235 0.878321 0.875998-3.036948 3.871121-4.944625 5.10263-4.944625 3.190305z m185.888166-85.234371c0-1.352336 1.045621-1.81241 2.323602-1.022385 1.277981 0.787701 2.323602 1.896059 2.323602 2.458371 0 0.564635-1.045621 1.024709-2.323602 1.024709s-2.323602-1.106035-2.323602-2.460695zM828.785895 0.526296c1.598638-0.645961 4.212691-0.645961 5.809005 0 1.598638 0.643638 0.29045 1.171095-2.904503 1.171095s-4.500817-0.527458-2.904502-1.171095z m116.180103 0c1.598638-0.645961 4.212691-0.645961 5.809006 0 1.598638 0.643638 0.29045 1.171095-2.904503 1.171095s-4.500817-0.527458-2.904503-1.171095z" p-id="2051"></path><path d="M411.118423 913.269719c-4.819151-1.545195-3.434284-2.16095 8.132607-3.601583 58.471122-7.29611 115.148424-33.6597 164.485467-76.506922 17.568755-15.261418 45.472893-48.423867 60.955053-72.440618 11.21138-17.396809 36.28537-65.85553 46.286153-89.458679 21.15175-49.924914 75.916727-158.655549 101.820243-202.153381 15.061589-25.294732 49.311483-76.520863 69.127162-103.400292 49.021033-66.482902 116.763328-132.445318 173.754315-169.193084 94.570604-60.975966 183.611036-87.564944 293.247876-87.564944 29.440038 0 46.485983 0.852762 46.485983 2.323602 0 1.277981-3.671291 2.323602-8.155843 2.323602-9.615065 0-42.940166 7.207814-62.71402 13.560541-72.008428 23.143077-140.222414 81.918591-182.472471 157.224211-7.012631 12.500979-27.813517 54.081838-27.813517 55.59915 0 3.648055-48.660875 105.814515-70.356347 147.716031-41.164934 79.509016-94.600811 160.42381-142.9875 216.515564-93.659752 108.577278-203.819403 176.18248-329.156822 202.00467-28.417653 5.855477-39.134106 6.854626-83.710088 7.816597-28.115585 0.60646-53.733298 0.262567-56.928251-0.762141z m-86.512352-9.008605c4.175513-0.51584 10.449239-0.506545 13.941612 0.023236 3.492374 0.532105 0.074355 0.952677-7.593532 0.941059-7.667887-0.013942-10.525917-0.446132-6.34808-0.964295z" p-id="2052"></path><path d="M246.142676 289.312856c0-0.480986 1.830998-2.311984 4.066304-4.066304 3.685233-2.888237 3.768883-2.806911 0.878321 0.878321-3.036948 3.871121-4.944625 5.10263-4.944625 3.190306z m19.750617-20.034098c2.314308-2.555962 4.72853-4.647204 5.367521-4.647204 0.638991 0-0.729611 2.091242-3.043918 4.647204-2.311984 2.555962-4.72853 4.647204-5.367521 4.647205-0.638991 0 0.731935-2.091242 3.043918-4.647205z" p-id="2053"></path><path d="M841.609855 0.454264c2.260865-0.587871 5.397728-0.550694 6.970806 0.085973 1.573079 0.636667-0.276509 1.119976-4.110452 1.071181-3.833943-0.046472-5.121219-0.566959-2.858031-1.157154z m90.62048 0c2.260865-0.587871 5.397728-0.550694 6.970807 0.085973 1.573079 0.636667-0.276509 1.119976-4.110452 1.071181-3.833943-0.046472-5.121219-0.566959-2.858031-1.157154z" p-id="2054"></path><path d="M872.934334 1022.725318c9.266525-0.441484 24.428029-0.441484 33.69223 0 9.266525 0.441484 1.684612 0.801643-16.846115 0.801643s-26.110316-0.362482-16.846115-0.801643z" p-id="2055"></path><path d="M845.051109 962.497553c1.598638-0.645961 4.212691-0.645961 5.809006 0 1.598638 0.643638 0.29045 1.171095-2.904503 1.171095s-4.500817-0.527458-2.904503-1.171095z m86.119664-0.048796c1.677641-0.671521 3.680586-0.587871 4.452021 0.183565 0.773759 0.771436-0.599489 1.32213-3.048565 1.219891-2.706996-0.111533-3.25769-0.662227-1.403456-1.403456z m-88.296879-901.557603c1.677641-0.671521 3.680586-0.587871 4.452022 0.183565 0.773759 0.771436-0.599489 1.32213-3.048566 1.219891-2.706996-0.111533-3.25769-0.662227-1.403456-1.403456z m90.620481 0c1.677641-0.671521 3.680586-0.587871 4.452022 0.183565 0.773759 0.771436-0.599489 1.32213-3.048566 1.219891-2.706996-0.111533-3.25769-0.662227-1.403456-1.403456z" p-id="2056"></path><path d="M129.667475 778.728512c-2.890561-3.685233-2.809235-3.766559 0.875998-0.875998 2.237629 1.751996 4.066304 3.582994 4.066304 4.066304 0 1.912325-1.907677 0.680815-4.942302-3.190306z" p-id="2057"></path><path d="M805.696261 1020.538809c1.677641-0.671521 3.680586-0.587871 4.452022 0.183564 0.773759 0.771436-0.599489 1.32213-3.048566 1.219891-2.706996-0.111533-3.25769-0.662227-1.403456-1.403455z" p-id="2058"></path><path d="M1400.392004 286.32935c1.598638-0.645961 4.212691-0.645961 5.809005 0 1.598638 0.643638 0.29045 1.171095-2.904502 1.171096s-4.500817-0.527458-2.904503-1.171096z" p-id="2059"></path><path d="M1323.713136 98.117583c1.598638-0.645961 4.212691-0.645961 5.809005 0 1.598638 0.643638 0.29045 1.171095-2.904503 1.171095s-4.500817-0.527458-2.904502-1.171095z" p-id="2060"></path><path d="M857.830921 0.400821c3.51561-0.534428 9.266525-0.534428 12.779811 0 3.51561 0.532105 0.638991 0.966618-6.389906 0.966619s-9.903192-0.434514-6.389905-0.966619z m51.119245 0c3.51561-0.534428 9.266525-0.534428 12.779812 0 3.51561 0.532105 0.638991 0.966618-6.389906 0.966619s-9.903192-0.434514-6.389906-0.966619z" p-id="2061"></path><path d="M835.903088 962.448757c1.677641-0.671521 3.680586-0.587871 4.452022 0.183565 0.773759 0.771436-0.599489 1.32213-3.048566 1.219891-2.706996-0.111533-3.25769-0.662227-1.403456-1.403456z m104.415706 0.046472c1.598638-0.643638 4.212691-0.643638 5.809005 0 1.598638 0.645961 0.29045 1.173419-2.904502 1.173419s-4.500817-0.527458-2.904503-1.171095zM111.080982 760.142019c-2.890561-3.685233-2.809235-3.766559 0.875998-0.875998 2.237629 1.751996 4.066304 3.582994 4.066304 4.066304 0 1.912325-1.907677 0.680815-4.942302-3.190306z m1518.19512-248.044521c0.023236-5.111925 0.499574-6.928981 1.054916-4.03842 0.557664 2.890561 0.534428 7.073045-0.046472 9.294408s-1.036327-0.144063-1.010767-5.255988zM833.577162 60.891154c1.677641-0.671521 3.680586-0.587871 4.452022 0.183565 0.773759 0.771436-0.599489 1.32213-3.048566 1.219891-2.706996-0.111533-3.25769-0.662227-1.403456-1.403456z m109.209298 0c1.677641-0.671521 3.680586-0.587871 4.452021 0.183565 0.773759 0.771436-0.599489 1.32213-3.048566 1.219891-2.706996-0.111533-3.25769-0.662227-1.403455-1.403456z" p-id="2062"></path><path d="M1387.656341 286.257319c2.260865-0.587871 5.397728-0.550694 6.970806 0.085973 1.573079 0.636667-0.276509 1.117653-4.110452 1.071181-3.833943-0.046472-5.121219-0.566959-2.85803-1.157154z" p-id="2063"></path><path d="M812.667067 1020.538809c1.677641-0.671521 3.680586-0.587871 4.452022 0.183564 0.773759 0.771436-0.599489 1.32213-3.048566 1.219891-2.706996-0.111533-3.25769-0.662227-1.403456-1.403455z m151.034135 0c1.677641-0.671521 3.680586-0.587871 4.452021 0.183564 0.773759 0.771436-0.599489 1.32213-3.048565 1.219891-2.706996-0.111533-3.25769-0.662227-1.403456-1.403455z" p-id="2064"></path><path d="M1184.877912 215.108623c0-0.39966 3.39943-3.796766 7.551707-7.551706l7.551707-6.82442-6.82442 7.551707c-6.362022 7.040514-8.278994 8.620564-8.278994 6.824419z" p-id="2065"></path><path d="M444.29946 925.147973c6.111073-0.480986 15.521662-0.474015 20.912419 0.013942 5.39308 0.487956 0.395012 0.880645-11.106818 0.873674-11.50183-0.006971-15.914351-0.40663-9.805601-0.887616zM972.997934 2.801102c1.677641-0.671521 3.680586-0.587871 4.452021 0.183565 0.773759 0.771436-0.599489 1.32213-3.048566 1.219891-2.706996-0.111533-3.25769-0.662227-1.403455-1.403456z" p-id="2066"></path><path d="M949.759589 962.448757c1.677641-0.671521 3.680586-0.587871 4.452022 0.183565 0.773759 0.771436-0.599489 1.32213-3.048566 1.219891-2.706996-0.111533-3.25769-0.662227-1.403456-1.403456z m679.109883-436.604829c0.111533-2.706996 0.662227-3.25769 1.403456-1.403455 0.673845 1.675317 0.590195 3.680586-0.183565 4.452021-0.771436 0.773759-1.319806-0.599489-1.219891-3.048566z m-1628.845051-2.323602c0.111533-2.706996 0.662227-3.25769 1.403456-1.403456 0.673845 1.675317 0.590195 3.680586-0.183565 4.452022-0.771436 0.773759-1.319806-0.599489-1.219891-3.048566z m0-23.236021c0.111533-2.706996 0.662227-3.25769 1.403456-1.403455 0.673845 1.675317 0.590195 3.680586-0.183565 4.452021-0.771436 0.773759-1.319806-0.599489-1.219891-3.048566z m1308.62945-402.238754c2.260865-0.587871 5.397728-0.550694 6.970806 0.085973 1.573079 0.636667-0.276509 1.119976-4.110452 1.071181-3.833943-0.046472-5.121219-0.566959-2.858031-1.157154z m27.883225 0c2.260865-0.587871 5.397728-0.550694 6.970806 0.085973 1.573079 0.636667-0.276509 1.119976-4.110452 1.071181-3.833943-0.046472-5.121219-0.566959-2.858031-1.157154z" p-id="2067"></path><path d="M952.083192 60.891154c1.677641-0.671521 3.680586-0.587871 4.452021 0.183565 0.773759 0.771436-0.599489 1.32213-3.048566 1.219891-2.706996-0.111533-3.25769-0.662227-1.403455-1.403456zM885.744352 0.398498c3.534199-0.534428 8.762303-0.520487 11.618011 0.030207 2.858031 0.553017-0.030207 0.989854-6.420113 0.971265-6.389906-0.016265-8.727449-0.469368-5.195574-1.001472z" p-id="2068"></path><path d="M1777.580004 525.843928c0.111533-2.706996 0.662227-3.25769 1.403456-1.403455 0.673845 1.675317 0.590195 3.680586-0.183565 4.452021-0.771436 0.773759-1.319806-0.599489-1.219891-3.048566z m0-27.883225c0.111533-2.706996 0.662227-3.25769 1.403456-1.403455 0.673845 1.675317 0.590195 3.680586-0.183565 4.452021-0.771436 0.773759-1.319806-0.599489-1.219891-3.048566z" p-id="2069"></path><path d="M821.961476 1020.538809c1.677641-0.671521 3.680586-0.587871 4.452021 0.183564 0.773759 0.771436-0.599489 1.32213-3.048566 1.219891-2.706996-0.111533-3.25769-0.662227-1.403455-1.403455z m132.445318 0c1.677641-0.671521 3.680586-0.587871 4.452021 0.183564 0.773759 0.771436-0.599489 1.32213-3.048566 1.219891-2.706996-0.111533-3.25769-0.662227-1.403455-1.403455z m555.775408-261.856012c0-0.483309 1.830998-2.314308 4.066303-4.066303 3.685233-2.890561 3.768883-2.809235 0.878322 0.875998-3.036948 3.871121-4.944625 5.10263-4.944625 3.190305z m-421.733776-343.017108c2.314308-2.555962 4.72853-4.647204 5.367521-4.647204 0.638991 0-0.729611 2.091242-3.043919 4.647204-2.311984 2.555962-4.72853 4.647204-5.367521 4.647204-0.638991 0 0.731935-2.091242 3.043919-4.647204z m300.325568-294.312086c1.598638-0.645961 4.212691-0.645961 5.809005 0 1.598638 0.643638 0.29045 1.171095-2.904503 1.171096s-4.500817-0.527458-2.904502-1.171096z" p-id="2070"></path><path d="M475.744767 925.271124c1.677641-0.671521 3.680586-0.587871 4.452022 0.183565 0.773759 0.771436-0.599489 1.32213-3.048566 1.219891-2.706996-0.111533-3.25769-0.662227-1.403456-1.403456z m1302.316223-413.175949c0.018589-6.389906 0.469368-8.727449 1.003796-5.195574 0.534428 3.531875 0.518163 8.75998-0.03253 11.61801-0.550694 2.858031-0.987531-0.03253-0.971266-6.422436z" p-id="2071"></path><path d="M879.90514 964.658503c5.432582-0.487956 14.32036-0.487956 19.750618 0 5.432582 0.487956 0.987531 0.88994-9.875309 0.889939s-15.305567-0.401983-9.875309-0.889939z m623.306256-199.0049c0-0.483309 1.830998-2.314308 4.066303-4.066303 3.685233-2.890561 3.768883-2.809235 0.878322 0.875998-3.036948 3.871121-4.944625 5.10263-4.944625 3.190305zM149.136937 512.095175c0.02556-5.111925 0.501898-6.928981 1.057239-4.038421 0.557664 2.890561 0.534428 7.073045-0.046472 9.294409s-1.036327-0.144063-1.010767-5.255988z m668.175011-451.204021c1.679964-0.671521 3.682909-0.587871 4.454345 0.183565 0.773759 0.771436-0.599489 1.32213-3.048566 1.219891-2.706996-0.111533-3.25769-0.662227-1.403456-1.403456z m141.739726 0c1.679964-0.671521 3.682909-0.587871 4.454345 0.183565 0.773759 0.771436-0.599489 1.32213-3.048566 1.219891-2.706996-0.111533-3.25769-0.662227-1.403455-1.403456z" p-id="2072"></path><path d="M756.900618 1015.891605c1.677641-0.671521 3.680586-0.587871 4.452021 0.183564 0.773759 0.771436-0.599489 1.32213-3.048566 1.219891-2.706996-0.111533-3.25769-0.662227-1.403455-1.403455z m-377.731724-113.870443c2.237629-0.585548 5.897302-0.585548 8.132608 0 2.237629 0.583224 0.40663 1.061886-4.066304 1.061886s-6.301609-0.478662-4.066304-1.061886z m-10.507328-165.052426c4.124394-0.511192 11.44374-0.520487 16.265214-0.018589 4.821474 0.504222 1.44528 0.924794-7.500587 0.934088-8.945868 0.009294-12.889021-0.401983-8.764627-0.915499z" p-id="2073"></path><path d="M1014.820447 1015.891605c1.677641-0.671521 3.680586-0.587871 4.452022 0.183564 0.773759 0.771436-0.599489 1.32213-3.048566 1.219891-2.706996-0.111533-3.25769-0.662227-1.403456-1.403455z m-202.15338-53.442848c1.677641-0.671521 3.680586-0.587871 4.452022 0.183565 0.773759 0.771436-0.599489 1.32213-3.048566 1.219891-2.706996-0.111533-3.25769-0.662227-1.403456-1.403456z m151.034135 0c1.677641-0.671521 3.680586-0.587871 4.452021 0.183565 0.773759 0.771436-0.599489 1.32213-3.048565 1.219891-2.706996-0.111533-3.25769-0.662227-1.403456-1.403456zM0.291635 512.095175c0.046472-3.833943 0.569283-5.121219 1.157154-2.858031 0.590195 2.258541 0.550694 5.395404-0.085973 6.970806-0.636667 1.570755-1.117653-0.278832-1.068857-4.112775z m148.440995-11.81087c0.111533-2.706996 0.662227-3.25769 1.403456-1.403455 0.673845 1.675317 0.590195 3.680586-0.183565 4.452021-0.771436 0.773759-1.319806-0.599489-1.219891-3.048566z m1149.564946-402.215518c1.677641-0.671521 3.680586-0.587871 4.452022 0.183565 0.773759 0.771436-0.599489 1.32213-3.048566 1.219891-2.706996-0.111533-3.25769-0.662227-1.403456-1.403456z m-478.662026-95.267685c1.677641-0.671521 3.680586-0.587871 4.452021 0.183565 0.773759 0.771436-0.599489 1.32213-3.048565 1.219891-2.706996-0.111533-3.25769-0.662227-1.403456-1.403456z m137.092522 0c1.677641-0.671521 3.680586-0.587871 4.452022 0.183565 0.773759 0.771436-0.599489 1.32213-3.048566 1.219891-2.706996-0.111533-3.25769-0.662227-1.403456-1.403456z" p-id="2074"></path><path d="M802.10862 962.425521c2.260865-0.587871 5.397728-0.550694 6.970806 0.085973 1.573079 0.636667-0.276509 1.119976-4.110452 1.071181-3.833943-0.046472-5.121219-0.566959-2.858031-1.157154z m169.622951 0c2.260865-0.587871 5.397728-0.550694 6.970806 0.085973 1.573079 0.636667-0.276509 1.119976-4.110452 1.071181-3.833943-0.046472-5.121219-0.566959-2.858031-1.157154z m-296.157026-16.241978c1.677641-0.671521 3.680586-0.587871 4.452022 0.183564 0.773759 0.771436-0.599489 1.32213-3.048566 1.219891-2.706996-0.111533-3.25769-0.662227-1.403456-1.403455z m425.219179 0c1.677641-0.671521 3.680586-0.587871 4.452022 0.183564 0.773759 0.771436-0.599489 1.32213-3.048566 1.219891-2.706996-0.111533-3.25769-0.662227-1.403456-1.403455z m554.613607-177.33034c2.314308-2.555962 4.72853-4.647204 5.367521-4.647204 0.638991 0-0.729611 2.091242-3.043919 4.647204-2.311984 2.555962-4.72853 4.647204-5.367521 4.647205-0.638991 0 0.731935-2.091242 3.043919-4.647205z m12.779812-12.494008c0-0.483309 1.830998-2.314308 4.066303-4.066304 3.685233-2.890561 3.768883-2.809235 0.878322 0.875998-3.036948 3.871121-4.944625 5.10263-4.944625 3.190306z m-475.176624-547.49409c2.314308-2.555962 4.72853-4.647204 5.367521-4.647204 0.638991 0-0.729611 2.091242-3.043919 4.647204-2.311984 2.555962-4.72853 4.647204-5.36752 4.647204-0.638991 0 0.731935-2.091242 3.043918-4.647204z m158.732228-82.913093c1.677641-0.671521 3.680586-0.587871 4.452022 0.183565 0.773759 0.771436-0.599489 1.32213-3.048566 1.219891-2.706996-0.111533-3.25769-0.662227-1.403456-1.403456z" p-id="2075"></path><path d="M827.043193 1020.908262c-3.194953-0.441484-22.01613-1.940208-41.824837-3.329722-53.335962-3.745647-101.920158-9.185199-135.930721-15.221917-40.75598-7.233373-72.66136-13.370006-84.811476-16.31401-7.028896-1.7032-18.007916-4.3219-24.397821-5.8183a604.603582 604.603582 0 0 1-22.07422-5.685854 7669.978072 7669.978072 0 0 0-20.912419-5.883361c-18.177539-5.081718-23.686799-6.819772-54.604648-17.217891-38.887804-13.079556-67.579643-23.847128-75.249853-28.238736-6.036718-3.459843-6.015806-3.473785 3.218189-2.281777 5.111925 0.659903 25.668832 2.428164 45.682016 3.929211 36.747767 2.755792 91.865931 0.634343 126.264537-4.858652 12.614836-2.014563 16.706699-1.463869 42.986638 5.778798 60.288179 16.613755 104.933869 24.676654 194.020773 35.044567 45.549571 5.30246 175.220508 5.321049 220.742197 0.03253 57.300027-6.654796 105.816838-13.695311 121.989108-17.701201 4.472934-1.108358 14.406333-3.278603 22.07422-4.823797 61.343095-12.356916 148.241165-42.229144 206.837762-71.102224 43.381651-21.377139 99.756884-55.015926 110.33392-65.832294 0.638991-0.652932 7.435527-5.846183 15.103414-11.539007 12.756575-9.468678 69.364169-64.419544 78.033528-75.747104 53.32202-69.663914 76.330328-130.110098 76.446508-200.840545 0.08365-51.944124-16.083974-100.872213-46.070058-139.416124-10.742012-13.809167-41.838779-43.72322-47.224888-45.433392-2.342191-0.743553-4.256839-2.142361-4.256839-3.106656 0-3.197276-40.983693-23.42888-59.567863-29.40286-26.426326-8.499736-52.34146-11.157937-92.906905-9.538387-62.170297 2.486254-117.853097 16.939059-175.552784 45.572808-22.701592 11.264823-57.832132 32.200477-62.337596 37.147426-0.638991 0.701728-4.821474 3.815355-9.294408 6.922011-12.770517 8.864542-17.78485 13.400213-48.375072 43.758074-15.7912 15.670372-28.334004 27.697337-27.87393 26.721423 0.45775-0.973589 4.842387-10.135552 9.740539-20.359401s11.532037-24.339732 14.740932-31.368628c3.211218-7.028896 9.898545-21.46776 14.861759-32.086621 4.963214-10.618861 9.022547-19.74597 9.022547-20.282722 0-1.923943 20.055009-41.973548 26.7191-53.354551 34.812206-59.460977 86.454262-110.110855 138.463447-135.798276 43.732515-21.602528 79.522957-29.398213 146.256809-31.856584l40.742039-1.503371 27.804222 14.638693c15.293949 8.048958 33.315806 18.138038 40.051929 22.42276 6.733799 4.280075 12.733339 7.784067 13.337476 7.784067 0.92247 0 27.557921 17.350337 34.830795 22.689975 38.922658 28.575658 65.060858 50.2386 86.03369 71.304376 77.131971 77.47354 117.095603 163.35852 117.235019 251.955143 0.081326 50.633613-9.189846 89.828132-32.874322 138.969993-55.097252 114.321222-188.997145 220.319301-360.929757 285.724052-24.806776 9.436148-71.952662 25.403941-88.296879 29.904759-52.069599 14.341272-102.240815 26.307823-130.121716 31.036353-7.667887 1.301217-22.82939 3.943153-33.69223 5.874066-31.707874 5.632411-46.520837 7.372789-132.445318 15.56581-25.280791 2.409575-159.512958 4.881888-171.946553 3.16707z m-476.970444-118.963779c4.124394-0.511192 11.44374-0.520487 16.265215-0.018589 4.821474 0.504222 1.44528 0.924794-7.500588 0.934088-8.945868 0.009294-12.889021-0.401983-8.764627-0.915499z m7.168313-164.885127c1.677641-0.671521 3.680586-0.587871 4.452021 0.183565 0.773759 0.771436-0.599489 1.32213-3.048566 1.219891-2.706996-0.111533-3.25769-0.662227-1.403455-1.403456z m39.501235 0c1.677641-0.671521 3.680586-0.587871 4.452021 0.183565 0.773759 0.771436-0.599489 1.32213-3.048566 1.219891-2.706996-0.111533-3.25769-0.662227-1.403455-1.403456z m894.586797-638.990569c1.677641-0.671521 3.680586-0.587871 4.452021 0.183565 0.773759 0.771436-0.599489 1.32213-3.048566 1.219891-2.706996-0.111533-3.25769-0.662227-1.403455-1.403456z" p-id="2076"></path><path d="M324.606071 901.937512c4.175513-0.51584 10.449239-0.506545 13.941612 0.023236 3.492374 0.532105 0.074355 0.952677-7.593532 0.941059-7.667887-0.013942-10.525917-0.446132-6.34808-0.964295z" p-id="2077"></path><path d="M782.46024 5.124704c1.677641-0.671521 3.680586-0.587871 4.452022 0.183565 0.773759 0.771436-0.599489 1.32213-3.048566 1.219891-2.706996-0.111533-3.25769-0.662227-1.403456-1.403456z m211.447789 0c1.677641-0.671521 3.680586-0.587871 4.452021 0.183565 0.773759 0.771436-0.599489 1.32213-3.048566 1.219891-2.706996-0.111533-3.25769-0.662227-1.403455-1.403456z m-165.122134-2.27713c1.598638-0.643638 4.212691-0.643638 5.809005 0 1.598638 0.645961 0.29045 1.173419-2.904503 1.173419s-4.500817-0.527458-2.904502-1.171095z m116.180103 0c1.598638-0.643638 4.212691-0.643638 5.809006 0 1.598638 0.645961 0.29045 1.173419-2.904503 1.173419s-4.500817-0.527458-2.904503-1.171095z" p-id="2078"></path><path d="M669.038253 628.558758c0-0.480986 1.830998-2.311984 4.066303-4.066304 3.685233-2.888237 3.768883-2.806911 0.878322 0.878322-3.036948 3.871121-4.944625 5.10263-4.944625 3.190305zM789.43337 5.127028c1.677641-0.671521 3.680586-0.587871 4.452022 0.183565 0.773759 0.771436-0.599489 1.32213-3.048566 1.219891-2.706996-0.111533-3.25769-0.662227-1.403456-1.403456z m197.506176 0c1.677641-0.671521 3.680586-0.587871 4.452022 0.183565 0.773759 0.771436-0.599489 1.32213-3.048566 1.219891-2.706996-0.111533-3.25769-0.662227-1.403456-1.403456z" p-id="2079"></path><path d="M88.137735 291.636458c0-0.480986 1.830998-2.311984 4.066304-4.066304 3.685233-2.888237 3.768883-2.806911 0.878321 0.878322-3.036948 3.871121-4.944625 5.10263-4.944625 3.190305z m188.211768-34.854031c0-0.480986 1.830998-2.311984 4.066303-4.066304 3.685233-2.888237 3.768883-2.806911 0.878322 0.878321-3.036948 3.871121-4.944625 5.10263-4.944625 3.190306z m591.937627-198.358938c11.822487-0.420572 31.166475-0.420572 42.986638 0 11.822487 0.422896 2.149332 0.766789-21.493319 0.766788s-33.313483-0.343893-21.493319-0.766788zM796.404176 5.124704c1.677641-0.671521 3.680586-0.587871 4.452022 0.183565 0.773759 0.771436-0.599489 1.32213-3.048566 1.219891-2.706996-0.111533-3.25769-0.662227-1.403456-1.403456z m183.564564 0c1.677641-0.671521 3.680586-0.587871 4.452022 0.183565 0.773759 0.771436-0.599489 1.32213-3.048566 1.219891-2.706996-0.111533-3.25769-0.662227-1.403456-1.403456z" p-id="2080"></path><path d="M310.041733 898.073362c-2.555962-1.524283-13.012172-7.161342-23.236021-12.526539-98.615995-51.758236-181.252579-122.470094-228.29855-195.352197C6.077404 608.970792-10.712944 518.819679 11.496044 437.739909c43.878901-160.196097 210.453287-297.421065 451.903425-372.275906 57.920429-17.954473 109.72049-30.648311 162.652145-39.854423 71.367114-12.408035 105.561242-16.246626 189.436306-21.251664 65.790469-3.926887 139.866903-2.288748 218.355858 4.833092 111.590989 10.119287 248.583597 40.121637 333.436897 73.019195 36.499141 14.150737 52.164866 20.66147 51.446873 21.377139-0.429866 0.429866-12.703133-0.792348-27.276765-2.718614-44.859462-5.925185-135.189492-3.183335-160.96521 4.888858-2.39331 0.750523-16.509193-1.951826-31.368627-6.006511-44.341298-12.096672-62.997499-16.537076-87.432499-20.812504-7.667887-1.343042-22.30658-3.931535-32.530429-5.753238s-29.045026-4.454345-41.824837-5.85083c-12.779811-1.396485-34.737851-3.787471-48.795644-5.316402-34.06633-3.703822-161.996889-3.685233-197.506176 0.027883-62.865054 6.571147-88.152815 10.219202-134.76892 19.44855-23.967955 4.747119-89.581831 21.15872-99.152747 24.802128-2.974211 1.133918-9.591829 3.345987-14.703754 4.914418-46.088647 14.155384-121.185142 46.764815-154.519538 67.09401-4.472934 2.727909-9.701039 5.660295-11.61801 6.51538-1.916972 0.855086-15.317185 9.312997-29.776961 18.793294-61.343095 40.219228-112.785321 90.046551-145.759558 141.182062-49.762262 77.171472-64.835469 165.66818-40.577062 238.229626 11.032463 32.997473 27.306972 59.709602 52.148601 85.585235 44.601542 46.4581 101.058101 70.063573 167.450383 70.017101 24.741715-0.018589 70.172783-4.814503 87.030515-9.187523 4.531024-1.175743 13.465274-3.366899 19.85518-4.867946 33.194979-7.804979 79.571753-26.633127 113.856502-46.22574 35.674263-20.387285 69.975276-47.856908 102.984367-82.480902l21.658295-22.715534-6.873215 13.620955c-7.442497 14.745579-18.379692 38.111721-34.110479 72.872808-25.373735 56.063871-33.571403 71.604121-53.054806 100.588734-51.948771 77.269063-123.755046 124.442832-210.950537 138.57498-21.161044 3.429637-104.046253 2.876619-110.103884-0.734258z" p-id="2081"></path></svg>